<?xml version="1.0" standalone="no"?>
<!DOCTYPE svg PUBLIC "-//W3C//DTD SVG 20010904//EN"
 "http://www.w3.org/TR/2001/REC-SVG-20010904/DTD/svg10.dtd">
<svg version="1.0" xmlns="http://www.w3.org/2000/svg"
 width="160" height="160" viewBox="0 0 800.000000 800.000000"
 preserveAspectRatio="xMidYMid meet">

<g transform="translate(0.000000,800.000000) scale(0.100000,-0.100000)"
fill="#000000" stroke="none">
<path d="M3635 7525 c-241 -24 -511 -81 -740 -157 -538 -178 -999 -463 -1401
-865 -532 -533 -870 -1193 -994 -1938 -52 -314 -52 -816 0 -1130 34 -205 114
-513 168 -645 6 -14 27 -68 48 -120 121 -311 327 -655 560 -935 108 -131 353
-374 479 -477 326 -266 677 -463 1080 -605 55 -19 114 -39 130 -43 196 -55
254 -69 430 -101 403 -74 939 -65 1330 22 197 44 259 61 415 115 533 182 973
458 1372 861 301 304 502 587 682 958 231 480 347 992 347 1535 0 408 -58 764
-187 1140 -140 411 -340 771 -612 1105 -102 126 -346 370 -477 479 -278 232
-624 439 -935 560 -52 21 -105 41 -117 46 -25 10 -156 54 -223 74 -82 25 -313
77 -425 96 -234 39 -672 51 -930 25z m795 -186 c80 -11 174 -26 210 -34 200
-43 267 -61 385 -100 409 -135 752 -322 1085 -590 118 -95 366 -339 462 -455
213 -255 413 -585 524 -865 7 -16 22 -55 33 -85 241 -614 286 -1348 125 -2008
-59 -241 -156 -498 -279 -737 -359 -697 -977 -1266 -1698 -1562 -270 -111
-631 -206 -867 -228 -36 -3 -103 -10 -150 -16 -110 -12 -431 -12 -540 0 -47 6
-112 13 -145 16 -68 7 -270 41 -330 56 -121 31 -170 45 -270 75 -105 33 -127
40 -240 86 -27 12 -59 24 -70 29 -11 4 -74 33 -140 65 -570 273 -1084 744
-1417 1299 -164 274 -317 644 -378 918 -44 193 -50 226 -71 377 -32 222 -31
648 0 860 53 351 114 578 238 875 87 208 173 367 306 565 350 521 856 948
1420 1197 298 131 556 205 902 259 243 38 642 39 905 3z"/>
<path d="M3834 7043 c-71 -5 -68 1 -79 -143 -3 -41 -10 -108 -16 -149 -5 -40
-14 -126 -19 -189 -17 -187 -17 -190 -54 -197 -87 -18 -236 -80 -339 -141
-189 -114 -337 -263 -450 -455 -44 -75 -105 -217 -127 -299 -17 -62 -26 -70
-79 -70 -25 0 -107 -6 -181 -14 -74 -8 -209 -22 -300 -31 -172 -16 -443 -44
-690 -70 -80 -8 -164 -15 -187 -15 -67 0 -86 -12 -110 -71 -60 -150 -74 -192
-70 -203 4 -9 39 -15 106 -19 l101 -5 138 50 c234 86 264 91 522 92 266 0 312
-9 560 -104 191 -73 281 -92 435 -93 176 -1 228 12 539 127 158 59 233 70 466
70 231 0 302 -10 460 -68 36 -13 110 -40 165 -60 141 -52 238 -70 380 -69 154
1 244 20 435 93 244 94 295 104 550 104 272 1 298 -4 625 -126 88 -33 92 -33
175 -23 100 12 98 0 35 160 -30 76 -50 114 -65 122 -13 6 -59 14 -104 17 -44
4 -137 13 -206 21 -69 8 -152 16 -185 19 -33 3 -118 12 -190 20 -71 8 -204 22
-295 31 -91 9 -219 23 -285 31 -66 8 -140 14 -165 14 -80 0 -85 4 -110 88 -36
119 -131 307 -202 402 -158 208 -379 368 -621 449 l-82 28 -17 144 c-14 123
-42 376 -53 487 -1 18 -5 35 -7 37 -6 7 -335 13 -404 8z"/>
<path d="M1465 4777 c-90 -19 -207 -78 -269 -137 -191 -181 -182 -505 19 -663
47 -37 198 -109 255 -123 8 -1 62 -19 119 -39 186 -64 248 -101 292 -172 19
-30 23 -52 23 -117 1 -70 -3 -87 -27 -130 -27 -48 -27 -48 -4 -42 12 3 67 6
123 6 l101 0 11 51 c25 109 10 246 -36 334 -64 120 -162 182 -430 272 -167 55
-234 86 -288 130 -50 41 -84 113 -84 180 0 158 128 269 326 281 128 7 230 -30
303 -110 l33 -37 79 66 c44 36 79 69 79 73 0 11 -84 86 -126 113 -82 51 -159
70 -304 73 -83 2 -159 -2 -195 -9z"/>
<path d="M6178 4780 c-122 -22 -274 -95 -378 -182 -123 -102 -222 -260 -271
-433 -20 -70 -23 -102 -23 -250 0 -173 6 -208 52 -335 20 -54 93 -184 126
-223 23 -28 25 -29 77 -18 30 5 85 13 122 17 l69 7 -45 46 c-65 67 -102 122
-136 206 -120 286 -59 610 154 820 181 179 457 226 672 116 23 -11 71 -48 107
-81 l64 -61 53 38 c28 21 66 50 83 66 l31 27 -73 70 c-87 82 -195 137 -327
166 -48 10 -306 13 -357 4z"/>
<path d="M2440 4203 c1 -638 6 -694 78 -844 62 -129 72 -136 234 -180 70 -19
109 -22 248 -22 182 0 237 9 390 68 47 18 113 43 148 56 54 19 66 28 84 62 72
143 78 200 78 850 l0 557 -99 0 -100 0 -3 -587 c-4 -574 -4 -590 -26 -653 -73
-218 -274 -327 -505 -276 -130 29 -224 108 -278 233 -43 100 -49 184 -49 751
l0 532 -100 0 -100 0 0 -547z"/>
<path d="M4112 4053 l3 -698 45 -6 c25 -3 69 -10 98 -14 l52 -8 0 268 0 267
243 -4 c272 -6 315 -15 397 -85 64 -55 90 -116 90 -213 0 -95 -17 -137 -79
-193 -76 -68 -176 -96 -351 -97 l-115 -1 90 -35 c119 -45 221 -71 323 -79 73
-6 87 -4 129 17 62 31 145 112 176 174 38 75 54 187 38 270 -18 100 -50 161
-119 226 -61 59 -153 108 -201 108 -42 0 -58 16 -24 24 45 12 125 61 165 103
66 68 91 134 96 246 4 83 1 106 -19 159 -29 78 -112 166 -190 201 -127 58
-138 60 -507 65 l-342 4 2 -699z m621 503 c91 -18 120 -32 169 -83 45 -47 63
-111 54 -194 -7 -75 -24 -106 -81 -157 -70 -61 -123 -72 -363 -72 l-202 0 0
260 0 260 174 0 c110 0 202 -5 249 -14z"/>
<path d="M6802 3425 c-35 -44 -115 -105 -185 -140 -44 -22 -63 -36 -55 -42 21
-13 108 -43 182 -63 l69 -18 84 83 85 84 -70 60 c-39 34 -75 61 -81 61 -5 0
-18 -11 -29 -25z"/>
<path d="M1130 3362 c-30 -26 -68 -57 -84 -70 l-30 -23 54 -54 c42 -43 61 -55
85 -55 33 0 142 28 224 58 l54 20 -39 12 c-76 25 -194 117 -194 151 0 16 -14
8 -70 -39z"/>
<path d="M1815 3021 c-116 -12 -176 -29 -443 -126 -51 -19 -113 -37 -137 -41
-25 -3 -45 -8 -45 -9 0 -21 143 -314 193 -396 14 -23 20 -23 132 19 126 46
148 52 242 67 161 26 267 29 418 10 140 -18 179 -28 480 -135 275 -97 537 -78
871 65 114 49 293 79 469 79 207 0 331 -24 545 -105 203 -76 307 -99 458 -99
153 0 252 22 457 100 209 80 330 103 540 103 196 0 333 -24 500 -88 116 -44
102 -50 172 77 67 121 143 289 137 300 -2 3 -23 9 -45 13 -23 4 -85 23 -138
42 -340 124 -359 127 -626 127 -246 0 -301 -10 -549 -100 -196 -72 -299 -94
-447 -94 -155 0 -254 20 -439 90 -248 93 -310 105 -565 104 -264 -1 -322 -13
-635 -134 -98 -37 -233 -60 -361 -60 -163 0 -276 26 -507 116 -137 54 -254 75
-437 79 -93 2 -201 0 -240 -4z"/>
<path d="M1850 2225 c-8 -2 -49 -8 -90 -15 -65 -10 -168 -36 -179 -46 -3 -3
52 -78 69 -94 3 -3 34 -39 69 -80 35 -41 101 -111 146 -156 l82 -81 144 -6
c172 -8 244 -24 472 -107 202 -73 285 -90 438 -90 164 0 254 18 439 90 250 96
294 104 560 104 261 1 313 -9 560 -104 184 -71 275 -90 433 -90 177 0 240 14
493 109 161 60 259 81 419 88 l140 6 50 43 c28 23 93 91 145 149 52 59 100
113 105 119 28 31 77 97 74 100 -2 2 -20 8 -39 15 -139 47 -420 64 -596 36
-125 -21 -213 -45 -369 -105 -175 -66 -248 -80 -415 -80 -166 0 -248 16 -420
80 -280 104 -334 115 -585 114 -229 -1 -308 -15 -530 -97 -220 -82 -291 -97
-465 -97 -186 0 -257 16 -510 115 -141 55 -319 85 -494 84 -72 -1 -138 -3
-146 -4z"/>
<path d="M3755 1414 c-91 -16 -185 -43 -265 -74 -197 -77 -282 -98 -422 -106
-136 -8 -267 7 -373 41 -43 14 -80 24 -82 22 -5 -6 129 -70 237 -114 374 -152
739 -222 1150 -222 477 0 914 100 1333 304 79 39 100 59 31 30 -109 -45 -194
-59 -369 -59 -199 1 -246 11 -485 104 -83 33 -175 58 -274 75 -112 19 -371 19
-481 -1z"/>
</g>
</svg>
