<?xml version="1.0" standalone="no"?>
<!DOCTYPE svg PUBLIC "-//W3C//DTD SVG 20010904//EN"
 "http://www.w3.org/TR/2001/REC-SVG-20010904/DTD/svg10.dtd">
<svg version="1.0" xmlns="http://www.w3.org/2000/svg"
 width="200.000000pt" height="200.000000pt" viewBox="0 0 200.000000 200.000000"
 preserveAspectRatio="xMidYMid meet">

<g transform="translate(0.000000,200.000000) scale(0.100000,-0.100000)"
fill="#000000" stroke="none">
<path d="M1851 1402 c-12 -28 -16 -30 -44 -25 l-32 6 18 -27 c18 -26 18 -27
-5 -46 l-23 -18 28 -7 c22 -6 27 -13 27 -36 0 -34 10 -37 35 -9 l18 20 24 -22
23 -21 0 36 c0 33 3 37 25 37 31 0 31 7 3 30 -20 15 -21 21 -10 44 12 27 9 30
-23 17 -16 -7 -23 -2 -36 21 l-16 30 -12 -30z"/>
<path d="M143 1214 c-15 -24 -15 -29 -2 -53 20 -36 71 -41 93 -9 20 28 20 52
0 72 -25 25 -71 20 -91 -10z"/>
<path d="M1665 1169 c-82 -72 -101 -99 -68 -99 21 1 178 134 178 152 0 30 -35
13 -110 -53z"/>
<path d="M264 1149 c-10 -17 5 -27 193 -130 167 -91 203 -105 203 -74 0 11
-361 215 -381 215 -4 0 -11 -5 -15 -11z"/>
<path d="M145 1088 c-12 -32 -32 -214 -25 -222 5 -5 15 -6 22 -3 15 5 45 208
33 227 -9 14 -25 13 -30 -2z"/>
<path d="M1510 1058 c0 -12 -5 -15 -17 -11 -11 5 -14 3 -8 -6 4 -8 2 -17 -6
-23 -11 -7 -11 -11 -1 -15 6 -2 12 -12 12 -20 0 -12 3 -13 14 -4 11 10 17 8
25 -6 9 -16 10 -16 11 5 0 12 5 22 11 22 8 0 8 4 0 13 -8 10 -7 17 2 26 10 11
9 13 -3 9 -8 -3 -20 2 -27 11 -11 14 -12 14 -13 -1z"/>
<path d="M1338 957 c-96 -36 -103 -40 -95 -61 5 -13 19 -10 88 15 102 37 121
47 116 62 -6 19 -19 17 -109 -16z"/>
<path d="M737 928 c-6 -21 -11 -25 -29 -20 -21 5 -22 4 -9 -11 12 -15 11 -20
-5 -39 -19 -21 -19 -21 9 -14 24 6 27 4 27 -21 0 -25 1 -26 14 -8 14 19 15 19
35 1 21 -19 21 -19 15 12 -6 29 -4 32 17 33 l24 0 -22 11 c-26 12 -29 28 -11
46 15 15 3 16 -23 2 -16 -9 -21 -7 -28 11 -8 23 -8 23 -14 -3z"/>
<path d="M1130 920 c-24 -24 -24 -29 -4 -58 17 -24 53 -29 72 -10 19 19 14 55
-10 72 -29 20 -34 20 -58 -4z"/>
<path d="M943 893 c-55 -3 -63 -7 -63 -23 0 -18 7 -20 68 -19 88 2 127 11 127
29 0 17 -27 19 -132 13z"/>
<path d="M86 815 c-6 -22 -11 -26 -32 -22 -24 4 -24 3 -8 -14 16 -18 16 -20
-2 -40 -19 -22 -19 -22 8 -16 22 6 28 3 36 -21 9 -26 9 -27 16 -4 9 26 19 28
36 7 18 -22 33 -19 20 4 -14 27 -13 30 13 41 l22 9 -22 7 c-26 7 -28 16 -12
45 10 20 10 20 -16 3 -14 -9 -27 -15 -29 -13 -2 2 -8 12 -13 23 -9 17 -11 16
-17 -9z"/>
<path d="M591 742 c-47 -43 -72 -72 -67 -80 4 -7 12 -12 18 -12 15 0 148 131
148 147 0 26 -26 12 -99 -55z"/>
<path d="M205 720 c-11 -17 9 -33 83 -69 65 -32 102 -36 102 -11 0 10 -150 90
-169 90 -5 0 -13 -5 -16 -10z"/>
<path d="M436 644 c-19 -18 -20 -28 -6 -55 19 -35 80 -18 80 22 0 21 -26 49
-45 49 -7 0 -21 -7 -29 -16z"/>
</g>
</svg>
