<?xml version="1.0" encoding="UTF-8"?>
<svg version="1.1" xmlns="http://www.w3.org/2000/svg" width="160" height="160" viewBox="80 40 200.000000 300.000000">
<path d="M0 0 C1.03290841 1.93108963 2.05098672 3.870118 3.0625 5.8125 C3.91521484 7.43091797 3.91521484 7.43091797 4.78515625 9.08203125 C6 12 6 12 5 15 C3.328125 16.09765625 3.328125 16.09765625 1.25 17.0625 C0.57453125 17.38347656 -0.1009375 17.70445313 -0.796875 18.03515625 C-2.29037491 18.68922447 -3.80087304 19.30554316 -5.32421875 19.88671875 C-8.69313374 21.28838411 -11.86258314 23.00649505 -15.0625 24.75 C-19.52165386 27.16135787 -23.98796482 29.49996791 -28.5625 31.6875 C-39.55435742 37.11576338 -50.44241556 43.445144 -60.5390625 50.3984375 C-63 52 -63 52 -65 52 C-65 52.66 -65 53.32 -65 54 C-66.03125 54.5775 -67.0625 55.155 -68.125 55.75 C-74.47650254 58.94475391 -74.47650254 58.94475391 -79 64 C-78.13375 64.185625 -77.2675 64.37125 -76.375 64.5625 C-70.85635919 66.9130322 -67.33796396 71.51602002 -65 77 C-64.53047851 82.16473641 -65.21253647 84.71216033 -68 89 C-67.22914063 88.566875 -66.45828125 88.13375 -65.6640625 87.6875 C-64.66117188 87.130625 -63.65828125 86.57375 -62.625 86 C-61.62726563 85.443125 -60.62953125 84.88625 -59.6015625 84.3125 C-57 83 -57 83 -55 83 C-54.43292683 92.6402439 -54.43292683 92.6402439 -58 97 C-61.65653827 99.43769218 -63.69000101 99.23944439 -68 99 C-68.33 98.67 -68.66 98.34 -69 98 C-69.33 103.61 -69.66 109.22 -70 115 C-70.99 115 -71.98 115 -73 115 C-73.33 108.07 -73.66 101.14 -74 94 C-74.99 94.99 -75.98 95.98 -77 97 C-83.83095837 97.83888962 -88.83424758 95.83018144 -95 93 C-94.03221562 90.58053905 -93.35257979 89.23957345 -91.171875 87.7578125 C-88.72187427 86.90295613 -86.83709998 86.79890882 -84.25 86.875 C-83.45078125 86.89304687 -82.6515625 86.91109375 -81.828125 86.9296875 C-81.22484375 86.95289063 -80.6215625 86.97609375 -80 87 C-80.32742187 86.52046875 -80.65484375 86.0409375 -80.9921875 85.546875 C-82.47674371 81.79520582 -82.21108873 78.24319259 -82.125 74.25 C-82.11597656 73.45722656 -82.10695312 72.66445312 -82.09765625 71.84765625 C-82.07417012 69.89830719 -82.03830137 67.94911425 -82 66 C-84.475 66.495 -84.475 66.495 -87 67 C-87 67.66 -87 68.32 -87 69 C-88.73046875 70.375 -88.73046875 70.375 -91.1875 72 C-95.50665366 74.93480954 -99.68445294 77.99342433 -103.8125 81.1875 C-104.62013794 81.81108398 -104.62013794 81.81108398 -105.4440918 82.44726562 C-107.91637958 84.3628768 -110.35851642 86.29867916 -112.76171875 88.30078125 C-115 90 -115 90 -117 90 C-117 90.66 -117 91.32 -117 92 C-117.804375 92.268125 -118.60875 92.53625 -119.4375 92.8125 C-120.283125 93.204375 -121.12875 93.59625 -122 94 C-122.33 94.99 -122.66 95.98 -123 97 C-125.1796875 99.0078125 -125.1796875 99.0078125 -127.875 101.125 C-128.75929687 101.82882813 -129.64359375 102.53265625 -130.5546875 103.2578125 C-133 105 -133 105 -136 106 C-136 106.66 -136 107.32 -136 108 C-136.66 108 -137.32 108 -138 108 C-138.24363281 108.58007812 -138.48726562 109.16015625 -138.73828125 109.7578125 C-140.22790383 112.40500557 -141.88519654 113.89278228 -144.1875 115.875 C-145.08082031 116.66003906 -145.97414062 117.44507813 -146.89453125 118.25390625 C-147.38904785 118.68848145 -147.88356445 119.12305664 -148.39306641 119.57080078 C-161.54627228 131.26920054 -174.47724501 143.44454557 -185.68359375 157.04296875 C-186.22113281 157.68878906 -186.75867188 158.33460938 -187.3125 159 C-187.78300781 159.5775 -188.25351563 160.155 -188.73828125 160.75 C-190 162 -190 162 -192 162 C-192.2165625 162.53496094 -192.433125 163.06992188 -192.65625 163.62109375 C-194.48317222 166.85538338 -196.95883813 169.38672878 -199.5 172.0625 C-202.21130519 174.93844517 -204.79846483 177.69769724 -207 181 C-207.66 181 -208.32 181 -209 181 C-209.2578125 181.72574219 -209.515625 182.45148438 -209.78125 183.19921875 C-211.05242499 186.12047667 -212.54016402 188.30872649 -214.5 190.8125 C-215.1084375 191.60269531 -215.716875 192.39289063 -216.34375 193.20703125 C-216.8903125 193.79871094 -217.436875 194.39039063 -218 195 C-218.66 195 -219.32 195 -220 195 C-220.27255615 195.57218262 -220.5451123 196.14436523 -220.82592773 196.73388672 C-222.01458104 199.02814331 -223.34075322 201.11623534 -224.78515625 203.2578125 C-225.31560547 204.04800781 -225.84605469 204.83820313 -226.39257812 205.65234375 C-227.21918945 206.87630859 -227.21918945 206.87630859 -228.0625 208.125 C-229.15856982 209.75191897 -230.25366992 211.3794918 -231.34765625 213.0078125 C-231.83242432 213.72598145 -232.31719238 214.44415039 -232.81665039 215.18408203 C-234.04191522 216.98912777 -234.04191522 216.98912777 -235 219 C-235.66 219 -236.32 219 -237 219 C-237.09667969 219.54269531 -237.19335938 220.08539063 -237.29296875 220.64453125 C-238.19648692 223.65459455 -239.67554522 226.00597878 -241.3125 228.6875 C-244.27816531 233.66078648 -246.82039858 238.63899277 -249 244 C-250.65 244 -252.3 244 -254 244 C-254 243.34 -254 242.68 -254 242 C-255.32257813 241.63068359 -255.32257813 241.63068359 -256.671875 241.25390625 C-260.21515777 239.91893704 -262.37456411 238.37817687 -265.25 235.9375 C-266.19746094 235.13699219 -267.14492188 234.33648437 -268.12109375 233.51171875 C-271.71409782 230.37698114 -275.26815472 227.20374751 -278.7890625 223.98828125 C-280.55080083 222.4039618 -282.33088787 220.90609002 -284.1875 219.4375 C-287.81849664 216.29063624 -291.12243519 212.85661793 -294 209 C-294 208.34 -294 207.68 -294 207 C-294.66 207 -295.32 207 -296 207 C-296.99 204.525 -296.99 204.525 -298 202 C-298.66 202 -299.32 202 -300 202 C-301.44963959 200.09625645 -302.81184323 198.12532841 -304.125 196.125 C-305.21167969 194.48917969 -305.21167969 194.48917969 -306.3203125 192.8203125 C-308 190 -308 190 -308 188 C-308.66 188 -309.32 188 -310 188 C-311.4606285 185.35261084 -312 184.10551666 -312 181 C-312.66 181 -313.32 181 -314 181 C-313.41512359 176.99251347 -312.15605425 174.14263232 -310.0625 170.6875 C-309.53785156 169.80449219 -309.01320313 168.92148437 -308.47265625 168.01171875 C-307.98667969 167.34785156 -307.50070312 166.68398437 -307 166 C-306.34 166 -305.68 166 -305 166 C-304.731875 165.2575 -304.46375 164.515 -304.1875 163.75 C-303.04723249 161.10938051 -301.90619694 159.14447156 -300 157 C-299.34 157 -298.68 157 -298 157 C-297.34 155.35 -296.68 153.7 -296 152 C-295.34 152 -294.68 152 -294 152 C-293.7525 151.443125 -293.505 150.88625 -293.25 150.3125 C-291.77075182 147.57589087 -290.06532561 145.32349131 -288 143 C-287.34 143 -286.68 143 -286 143 C-286 142.34 -286 141.68 -286 141 C-285.34 141 -284.68 141 -284 141 C-283.731875 140.360625 -283.46375 139.72125 -283.1875 139.0625 C-282 137 -282 137 -279 136 C-279 135.34 -279 134.68 -279 134 C-278.34 134 -277.68 134 -277 134 C-277 133.34 -277 132.68 -277 132 C-275.28048026 130.46148234 -273.49812503 128.99268241 -271.6875 127.5625 C-267.83532998 124.54764431 -267.83532998 124.54764431 -264.26953125 121.21484375 C-263 120 -263 120 -261 120 C-260.505 118.515 -260.505 118.515 -260 117 C-258.00390625 115.17578125 -258.00390625 115.17578125 -255.5625 113.3125 C-254.35787109 112.37857422 -254.35787109 112.37857422 -253.12890625 111.42578125 C-251 110 -251 110 -249 110 C-249 109.34 -249 108.68 -249 108 C-247.43041992 106.70654297 -247.43041992 106.70654297 -245.23046875 105.2421875 C-244.42867188 104.70231201 -243.626875 104.16243652 -242.80078125 103.60620117 C-241.93839844 103.03490479 -241.07601562 102.4636084 -240.1875 101.875 C-238.44041961 100.70329272 -236.69432131 99.53011972 -234.94921875 98.35546875 C-234.0989209 97.7836084 -233.24862305 97.21174805 -232.37255859 96.62255859 C-228.49610621 93.97150874 -224.75676538 91.15194812 -221.03125 88.29296875 C-219 87 -219 87 -216 87 C-216 86.34 -216 85.68 -216 85 C-213.5089775 83.2834971 -211.02278714 81.68756121 -208.4375 80.125 C-207.73302734 79.69058594 -207.02855469 79.25617188 -206.30273438 78.80859375 C-201.91704863 76.11655071 -197.47758455 73.53569304 -193 71 C-192.15953125 70.51015625 -191.3190625 70.0203125 -190.453125 69.515625 C-189.72609375 69.09796875 -188.9990625 68.6803125 -188.25 68.25 C-187.51265625 67.82203125 -186.7753125 67.3940625 -186.015625 66.953125 C-184 66 -184 66 -181 66 C-181 65.34 -181 64.68 -181 64 C-175 61 -175 61 -173.09936523 60.05078125 C-169.74151095 58.37330449 -166.38593983 56.69156112 -163.03515625 55 C-140.89803658 43.84145187 -118.44843858 35.07712393 -94.91015625 27.31640625 C-91.10435025 26.04846515 -87.32646626 24.70538472 -83.54638672 23.36303711 C-75.92469798 20.65914211 -68.32416304 18.15467499 -60.51953125 16.01953125 C-56.48401999 14.85053187 -52.53350953 13.49368275 -48.5625 12.125 C-38.68922251 8.7515944 -28.633388 6.17073687 -18.51806641 3.63427734 C-16.34589378 3.0871274 -14.17796161 2.52709516 -12.01171875 1.95703125 C-10.95597656 1.68246094 -9.90023438 1.40789062 -8.8125 1.125 C-7.52279297 0.78855469 -7.52279297 0.78855469 -6.20703125 0.4453125 C-4 0 -4 0 0 0 Z M-72 81 C-72 83.64 -72 86.28 -72 89 C-71.67 89 -71.34 89 -71 89 C-71 86.36 -71 83.72 -71 81 C-71.33 81 -71.66 81 -72 81 Z M-70 89 C-69.67 89.99 -69.34 90.98 -69 92 C-68.67 91.01 -68.34 90.02 -68 89 C-68.66 89 -69.32 89 -70 89 Z " fill="#78BE20" transform="translate(328,89)"/>
<path d="M0 0 C3.859375 1.71777344 3.859375 1.71777344 5.125 4.2578125 C7.72003787 12.76119552 10.09778207 21.31356647 12 30 C12.38273071 31.63569946 12.38273071 31.63569946 12.77319336 33.30444336 C15.25746477 44.90682607 15.51292919 56.226762 15.4375 68.0625 C15.43479095 69.05623627 15.43208191 70.04997253 15.42929077 71.07382202 C15.36870362 85.71217929 14.85714321 99.79306256 11 114 C10.80212891 114.74862305 10.60425781 115.49724609 10.40039062 116.26855469 C6.6043147 130.25506744 0.57257339 143.13519995 -6 156 C-6.81440448 157.62404636 -7.62729925 159.2488524 -8.4375 160.875 C-8.953125 161.90625 -9.46875 162.9375 -10 164 C-10.66 164 -11.32 164 -12 164 C-12.26296875 164.72574219 -12.5259375 165.45148438 -12.796875 166.19921875 C-14.82606624 170.92301783 -17.98706321 174.85956088 -21 179 C-21.56847656 179.80050781 -22.13695312 180.60101563 -22.72265625 181.42578125 C-23.24730469 182.15152344 -23.77195312 182.87726563 -24.3125 183.625 C-24.78300781 184.27726563 -25.25351562 184.92953125 -25.73828125 185.6015625 C-26.36283203 186.29378906 -26.36283203 186.29378906 -27 187 C-27.66 187 -28.32 187 -29 187 C-29.226875 187.53625 -29.45375 188.0725 -29.6875 188.625 C-32.49094878 193.69790732 -36.27416462 197.6791427 -41 201 C-41.66 201 -42.32 201 -43 201 C-43.226875 201.57234375 -43.45375 202.1446875 -43.6875 202.734375 C-45.35992245 205.62129471 -47.38140185 207.19470494 -50 209.25 C-50.886875 209.95640625 -51.77375 210.6628125 -52.6875 211.390625 C-55 213 -55 213 -57 213 C-57 213.66 -57 214.32 -57 215 C-61.38461538 218 -61.38461538 218 -64 218 C-64 218.66 -64 219.32 -64 220 C-78.21036527 228.23491601 -92.49448323 235.46502335 -108 241 C-109.01030273 241.36121948 -109.01030273 241.36121948 -110.04101562 241.72973633 C-115.54130033 243.63715133 -121.04363161 245.04622632 -126.75 246.1875 C-128.0479248 246.44901855 -128.0479248 246.44901855 -129.37207031 246.71582031 C-136.33542132 248.03810659 -142.90731271 248.46594296 -150 248 C-147.03719772 236.71926836 -143.1544113 225.88982406 -139 215 C-138.69626465 214.19884766 -138.3925293 213.39769531 -138.07958984 212.57226562 C-135.07035868 204.64865534 -132.03579991 196.7627703 -128.43359375 189.0859375 C-127.25060373 186.53944672 -126.10413304 183.98357639 -124.97265625 181.4140625 C-120.94748154 172.29850906 -116.7485056 163.3855322 -111.96484375 154.64453125 C-109.86546699 150.79584802 -107.93331676 146.8714817 -106 142.9375 C-98.79357033 128.37161177 -90.38892999 114.4297972 -81.29296875 100.96875 C-79.80004844 98.69554204 -78.46571879 96.34466897 -77.13671875 93.97265625 C-75.59898344 91.3040778 -73.99682417 88.68082645 -72.375 86.0625 C-71.78460938 85.10472656 -71.19421875 84.14695312 -70.5859375 83.16015625 C-70.06257813 82.44730469 -69.53921875 81.73445313 -69 81 C-68.34 81 -67.68 81 -67 81 C-66.5359375 79.824375 -66.5359375 79.824375 -66.0625 78.625 C-65 76 -65 76 -64 74 C-63.34 74 -62.68 74 -62 74 C-61.773125 73.32582031 -61.54625 72.65164062 -61.3125 71.95703125 C-59.6363107 68.18061666 -57.40895459 65.02906415 -55 61.6875 C-54.54882812 61.04232422 -54.09765625 60.39714844 -53.6328125 59.73242188 C-52.47579063 58.11498745 -51.24333423 56.55206756 -50 55 C-49.34 55 -48.68 55 -48 55 C-47.773125 54.484375 -47.54625 53.96875 -47.3125 53.4375 C-45.51782382 50.10452995 -43.50034985 46.85296329 -41 44 C-40.34 44 -39.68 44 -39 44 C-38.731875 43.42765625 -38.46375 42.8553125 -38.1875 42.265625 C-36.95867364 39.92115366 -35.57477824 37.87595062 -34 35.75 C-33.484375 35.04359375 -32.96875 34.3371875 -32.4375 33.609375 C-31.963125 33.07828125 -31.48875 32.5471875 -31 32 C-30.34 32 -29.68 32 -29 32 C-28.773125 31.278125 -28.54625 30.55625 -28.3125 29.8125 C-26.73664872 26.43567583 -24.79123384 24.44232961 -22 22 C-21.34 22 -20.68 22 -20 22 C-19.75523926 21.42926758 -19.51047852 20.85853516 -19.25830078 20.27050781 C-17.7798053 17.60267546 -16.03873452 15.81283685 -13.8671875 13.671875 C-12.65869141 12.47304687 -12.65869141 12.47304687 -11.42578125 11.25 C-10.58402344 10.425 -9.74226562 9.6 -8.875 8.75 C-7.60076172 7.48929687 -7.60076172 7.48929687 -6.30078125 6.203125 C-4.20495077 4.13084317 -2.10459287 2.06337607 0 0 Z " fill="#78BE20" transform="translate(336,111)"/>
<path d="M0 0 C0.94242554 -0.01026215 1.88485107 -0.02052429 2.85583496 -0.03109741 C21.14204824 -0.18931218 38.93832715 2.08251345 56.3125 8 C57.19550781 8.28230469 58.07851562 8.56460937 58.98828125 8.85546875 C64.41270434 10.6367429 69.39283102 12.84402762 74.4375 15.5 C75.72196251 16.13555999 77.0084325 16.76707896 78.296875 17.39453125 C100.4844274 28.30399741 100.4844274 28.30399741 105.4375 33.5 C106.79691902 34.60282185 108.17353569 35.68462952 109.5625 36.75 C110.34753906 37.35714844 111.13257813 37.96429688 111.94140625 38.58984375 C113.63022591 39.88222687 115.3257674 41.16586561 117.02734375 42.44140625 C117.84332031 43.05886719 118.65929687 43.67632812 119.5 44.3125 C120.25410156 44.87582031 121.00820313 45.43914063 121.78515625 46.01953125 C122.60306641 46.75236328 122.60306641 46.75236328 123.4375 47.5 C123.4375 48.16 123.4375 48.82 123.4375 49.5 C124.076875 49.768125 124.71625 50.03625 125.375 50.3125 C127.4375 51.5 127.4375 51.5 128.4375 54.5 C129.0975 54.5 129.7575 54.5 130.4375 54.5 C130.4375 55.16 130.4375 55.82 130.4375 56.5 C131.0975 56.5 131.7575 56.5 132.4375 56.5 C134.3828125 58.6171875 134.3828125 58.6171875 136.5625 61.375 C137.28695313 62.27992187 138.01140625 63.18484375 138.7578125 64.1171875 C140.4375 66.5 140.4375 66.5 140.4375 68.5 C141.0975 68.5 141.7575 68.5 142.4375 68.5 C144.4175 71.965 144.4175 71.965 146.4375 75.5 C144.87509968 75.52730408 143.3125573 75.54653226 141.75 75.5625 C140.87988281 75.57410156 140.00976562 75.58570312 139.11328125 75.59765625 C136.4375 75.5 136.4375 75.5 134.39013672 75.05932617 C114.73799691 71.33656676 94.13086381 72.18516504 74.2121582 72.23925781 C69.98379673 72.25062383 65.75568791 72.24389408 61.52733517 72.23237419 C35.2832323 72.17179091 9.47804916 73.35136421 -16.53710938 77.07470703 C-19.76691209 77.52873514 -22.99995916 77.95125062 -26.234375 78.37109375 C-42.88631656 80.57811826 -59.19324047 83.74993208 -75.5625 87.5 C-77.13798079 87.85434476 -78.71349669 88.20853348 -80.2890625 88.5625 C-84.39187216 89.49591311 -88.47919455 90.48490119 -92.5625 91.5 C-93.4793457 91.726875 -94.39619141 91.95375 -95.34082031 92.1875 C-98.39640546 92.94867074 -101.44856287 93.72237805 -104.5 94.5 C-105.44786377 94.7371875 -106.39572754 94.974375 -107.37231445 95.21875 C-112.82254415 96.62785479 -117.95722069 98.3660099 -123.15356445 100.52734375 C-127.66216722 102.34778293 -132.31315024 103.75365862 -136.94921875 105.2109375 C-141.41550803 106.65568499 -145.50987399 108.38545464 -149.67382812 110.54980469 C-152.45654287 111.94979509 -155.33433127 113.03470168 -158.25 114.125 C-162.03619691 115.54879141 -165.81242912 116.98327374 -169.5625 118.5 C-164.39322842 96.09982315 -147.66761478 69.8946033 -130.5625 54.5 C-129.9025 54.5 -129.2425 54.5 -128.5625 54.5 C-128.335625 53.9225 -128.10875 53.345 -127.875 52.75 C-126.21848007 49.91025155 -124.16781294 48.48500033 -121.5625 46.5 C-120.840625 45.7575 -120.11875 45.015 -119.375 44.25 C-117.5625 42.5 -117.5625 42.5 -115.5625 42.5 C-115.5625 41.84 -115.5625 41.18 -115.5625 40.5 C-113.30435152 38.70173555 -111.04972261 37.0253199 -108.6875 35.375 C-108.03652344 34.90707031 -107.38554688 34.43914063 -106.71484375 33.95703125 C-101.82662172 30.5 -101.82662172 30.5 -99.5625 30.5 C-99.5625 29.84 -99.5625 29.18 -99.5625 28.5 C-85.00713776 20.06515802 -70.5539987 12.84269751 -54.5625 7.5 C-53.52802734 7.13878052 -53.52802734 7.13878052 -52.47265625 6.77026367 C-35.25413833 0.83548972 -18.05657611 0.08399187 0 0 Z " fill="#78BE20" transform="translate(171.5625,-0.5)"/>
<path d="M0 0 C4.76665491 0.6821918 7.8194608 1.79425561 11.875 4.4375 C12.84179688 5.05496094 13.80859375 5.67242187 14.8046875 6.30859375 C15.52914062 6.86675781 16.25359375 7.42492187 17 8 C17 8.66 17 9.32 17 10 C17.66 10 18.32 10 19 10 C26.37912368 18.67713821 29.66768791 26.42574428 29.4296875 37.796875 C28.6621836 43.51826773 26.04533343 47.95466657 22 52 C22.32041397 54.60280568 22.32041397 54.60280568 23 57 C23.33 56.01 23.66 55.02 24 54 C24.66 54 25.32 54 26 54 C26 53.34 26 52.68 26 52 C28.30078125 50.2734375 28.30078125 50.2734375 31.3125 48.375 C32.29863281 47.74335938 33.28476563 47.11171875 34.30078125 46.4609375 C37 45 37 45 40 45 C40 44.34 40 43.68 40 43 C42.90548882 40.95830515 44.40142046 40 48 40 C48.98571283 59.07901953 48.98571283 59.07901953 43 66 C39.80443418 69.29143279 36.73132004 71.86943977 31.95703125 72.09765625 C31.24933594 72.08605469 30.54164063 72.07445312 29.8125 72.0625 C28.554375 72.041875 27.29625 72.02125 26 72 C26 71.01 26 70.02 26 69 C29 66.8125 29 66.8125 32 65 C31.443125 65.28875 30.88625 65.5775 30.3125 65.875 C27.91489049 67.04140463 25.47924559 68.02145862 23 69 C22.96241577 70.53708618 22.96241577 70.53708618 22.92407227 72.10522461 C22.83015516 75.89409676 22.72989683 79.68277881 22.62768555 83.47143555 C22.58427703 85.11364303 22.54260642 86.75589739 22.50268555 88.39819336 C22.4451256 90.75388745 22.38139108 93.10934428 22.31640625 95.46484375 C22.29133751 96.57266457 22.29133751 96.57266457 22.26576233 97.7028656 C22.11387171 102.88612829 22.11387171 102.88612829 21 104 C18.69 104 16.38 104 14 104 C14 86.51 14 69.02 14 51 C12.02 51.495 12.02 51.495 10 52 C10.66 52 11.32 52 12 52 C12.495 54.475 12.495 54.475 13 57 C8.05 56.67 3.1 56.34 -2 56 C-0.081875 56.309375 1.83625 56.61875 3.8125 56.9375 C7.01110753 57.45340444 9.92411953 57.97470651 13 59 C12.11593727 61.97366555 11.31696033 63.7127547 9 65.8125 C-0.05336395 69.39612323 -7.87944416 65.88361507 -16.36328125 62.41015625 C-19.30438176 61.26972952 -21.89930388 60.47380076 -25 60 C-25 59.01 -25 58.02 -25 57 C-24.34 57 -23.68 57 -23 57 C-22.78085938 56.40703125 -22.56171875 55.8140625 -22.3359375 55.203125 C-19.5314622 50.57820082 -13.92075857 48.74040654 -9 47 C-4.3710426 46.42937968 0.72398526 45.86199263 5 48 C5 47.34 5 46.68 5 46 C4.34 46 3.68 46 3 46 C-0.68336571 39.27385392 -1.16564699 33.53607162 -0.87890625 25.9765625 C-0.85529526 25.23038666 -0.83168427 24.48421082 -0.80735779 23.71542358 C-0.73129587 21.35172722 -0.64702781 18.98840723 -0.5625 16.625 C-0.50922161 15.01434082 -0.45648169 13.40366373 -0.40429688 11.79296875 C-0.2757595 7.86174462 -0.13986598 3.93083672 0 0 Z M11 17 C12 19 12 19 12 19 Z M12 20 C12.57231982 22.95698575 13.22307729 25.83653984 14 28.75 C15.65927471 36.01861385 15.67615945 43.57723365 16 51 C17.32 51 18.64 51 20 51 C20.37184863 39.47269248 17.72470652 30.49534044 13 20 C12.67 20 12.34 20 12 20 Z M37 57 C38 59 38 59 38 59 Z " fill="#79BB1F" transform="translate(147,248)"/>
<path d="M0 0 C4.00748653 0.58487641 6.85736768 1.84394575 10.3125 3.9375 C11.19550781 4.46214844 12.07851563 4.98679687 12.98828125 5.52734375 C13.65214844 6.01332031 14.31601562 6.49929687 15 7 C15 7.66 15 8.32 15 9 C15.556875 9.20625 16.11375 9.4125 16.6875 9.625 C23.59625961 13.73291112 25.90520456 20.61146042 28 28 C29.65399264 34.79599697 28.87770692 40.60638504 26 47 C24.68557638 48.35197858 23.3565164 49.69026002 22 51 C21.66551741 54.167832 21.66551741 54.167832 22 57 C22.66 56.01 23.32 55.02 24 54 C24.66 54 25.32 54 26 54 C26 53.34 26 52.68 26 52 C26.66 52 27.32 52 28 52 C28 51.34 28 50.68 28 50 C28.98742188 49.44570312 29.97484375 48.89140625 30.9921875 48.3203125 C32.28655535 47.58871328 33.58082087 46.85693301 34.875 46.125 C35.52597656 45.76019531 36.17695312 45.39539063 36.84765625 45.01953125 C39.50393354 43.51339464 41.83019001 42.16980999 44 40 C44.99 40 45.98 40 47 40 C49.48983431 44.97966862 48.7142174 52.45768212 47.24609375 57.68359375 C44.33494169 64.45344932 40.86515552 69.18097771 34.10546875 72.3515625 C30.75588618 73.38315936 28.36616531 72.84154133 25 72 C26.09898702 68.70303895 26.94597387 67.95329411 29.5625 65.8125 C30.20316406 65.28269531 30.84382813 64.75289063 31.50390625 64.20703125 C31.99761719 63.80871094 32.49132813 63.41039062 33 63 C32.37351563 63.433125 31.74703125 63.86625 31.1015625 64.3125 C30.28429688 64.869375 29.46703125 65.42625 28.625 66 C27.81289063 66.556875 27.00078125 67.11375 26.1640625 67.6875 C24 69 24 69 22 69 C21.67 80.55 21.34 92.1 21 104 C18.69 104 16.38 104 14 104 C14 86.84 14 69.68 14 52 C12.68 51.67 11.36 51.34 10 51 C10.66 51.99 11.32 52.98 12 54 C12 54.99 12 55.98 12 57 C9.69 57 7.38 57 5 57 C7.31 57.66 9.62 58.32 12 59 C11.9375 61.3125 11.9375 61.3125 11 64 C4.81490008 68.21711358 -1.88293632 67.26788545 -9 66 C-12.46318169 64.90886056 -15.70036194 63.50415933 -19 62 C-20.99302124 61.3127513 -22.98967123 60.63484067 -25 60 C-25 58.68 -25 57.36 -25 56 C-24.34 56 -23.68 56 -23 56 C-23 55.34 -23 54.68 -23 54 C-21.23084525 53.01780373 -19.45961431 52.03934641 -17.6875 51.0625 C-16.70136719 50.51722656 -15.71523437 49.97195312 -14.69921875 49.41015625 C-10.34536785 47.13556844 -7.1761135 46.88934541 -2.3125 46.9375 C-0.54326172 46.95103516 -0.54326172 46.95103516 1.26171875 46.96484375 C2.16535156 46.97644531 3.06898437 46.98804688 4 47 C3.36707031 46.2678125 2.73414062 45.535625 2.08203125 44.78125 C-2.8071195 38.25015181 -2.14265798 30.58156856 -1.359375 22.8046875 C-0.91530813 18.10337086 -0.67129036 13.40322268 -0.4375 8.6875 C-0.39391357 7.8322876 -0.35032715 6.9770752 -0.30541992 6.09594727 C-0.20213765 4.06403931 -0.10085049 2.0320301 0 0 Z M10 17 C11 19 11 19 11 19 Z M12 21 C12.48578543 24.12290635 12.9986012 26.99580359 14 30 C14.14715199 31.62567079 14.24721867 33.25586857 14.31640625 34.88671875 C14.35830078 35.82451172 14.40019531 36.76230469 14.44335938 37.72851562 C14.48267578 38.70498047 14.52199219 39.68144531 14.5625 40.6875 C14.60568359 41.67556641 14.64886719 42.66363281 14.69335938 43.68164062 C14.79941654 46.12095546 14.90147714 48.56037113 15 51 C16.32 51 17.64 51 19 51 C19.43782487 39.74627938 18.49211493 30.93811273 13 21 C12.67 21 12.34 21 12 21 Z " fill="#78BE20" transform="translate(25,117)"/>
<path d="M0 0 C7.69321479 1.10486958 12.15434083 5.00840959 17.4375 10.5625 C21.33634153 16.64469278 21.69944978 22.93350005 21 30 C20.109375 32.77734375 20.109375 32.77734375 19 35 C18.01 35.495 18.01 35.495 17 36 C17 36.99 17 37.98 17 39 C17.474375 38.443125 17.94875 37.88625 18.4375 37.3125 C22.97631527 33.21649598 28.55034175 30.70005795 34 28 C35.68997013 29.68997013 35.25202754 31.74863286 35.3125 34.0625 C35.24170924 39.51338814 34.46623085 43.69254939 31 48 C28.03883572 50.47699287 25.09764095 51.8253753 21.25 52.4375 C19 52 19 52 16 49 C16 57.25 16 65.5 16 74 C13.525 74.495 13.525 74.495 11 75 C11 62.46 11 49.92 11 37 C10.34 37 9.68 37 9 37 C9.268125 38.0725 9.53625 39.145 9.8125 40.25 C10 44 10 44 8.125 46.4375 C3.92859459 48.53570271 0.60867102 48.67540868 -4 48 C-7.625 46.625 -7.625 46.625 -11 45 C-13.31752243 44.24874027 -15.64394281 43.6250764 -18 43 C-15.9570728 38.44270085 -13.6254156 35.92594096 -9 34 C-6.9257375 33.71519194 -4.83928561 33.51125776 -2.75 33.375 C-1.67234375 33.30023438 -0.5946875 33.22546875 0.515625 33.1484375 C1.33546875 33.09945312 2.1553125 33.05046875 3 33 C2.51104248 32.47889648 2.02208496 31.95779297 1.51831055 31.42089844 C-0.49465926 28.21128135 -0.34258643 26.03656893 -0.29296875 22.265625 C-0.28330078 20.97011719 -0.27363281 19.67460937 -0.26367188 18.33984375 C-0.23860783 16.97655646 -0.21321302 15.61327521 -0.1875 14.25 C-0.17244518 12.87110816 -0.15875817 11.49220065 -0.14648438 10.11328125 C-0.11111909 6.74179085 -0.06175904 3.37109346 0 0 Z M10 17 C11 20 11 20 11 20 Z M11 20 C12 23 12 23 12 23 Z M12 23 C12 27.29 12 31.58 12 36 C12.66 36 13.32 36 14 36 C14.05391993 34.20866022 14.09275571 32.41686101 14.125 30.625 C14.14820313 29.62726563 14.17140625 28.62953125 14.1953125 27.6015625 C14.27216848 24.83737827 14.27216848 24.83737827 12 23 Z M2 40 C2 40.33 2 40.66 2 41 C3.65 41 5.3 41 7 41 C7 40.67 7 40.34 7 40 C5.35 40 3.7 40 2 40 Z M21 46 C21.33 46.66 21.66 47.32 22 48 C22.33 47.34 22.66 46.68 23 46 C22.34 46 21.68 46 21 46 Z " fill="#78BE20" transform="translate(199,198)"/>
<path d="M0 0 C3.47988948 1.13453931 6.77259982 2.26216913 10 4 C10 4.66 10 5.32 10 6 C10.99 6.33 11.98 6.66 13 7 C13 7.66 13 8.32 13 9 C13.66 9 14.32 9 15 9 C18.49935334 12.31908362 19.87027194 15.96871641 20.46484375 20.6953125 C20.73227672 31.62797216 20.73227672 31.62797216 16 37 C16 37.99 16 38.98 16 40 C16.61875 39.34 17.2375 38.68 17.875 38 C20 36 20 36 22 36 C22 35.34 22 34.68 22 34 C23.24735567 33.3490741 24.49801832 32.70448331 25.75 32.0625 C26.44609375 31.70285156 27.1421875 31.34320313 27.859375 30.97265625 C29.90224433 30.04441818 31.81115376 29.46833422 34 29 C34.76219489 43.07943338 34.76219489 43.07943338 30 49 C26.10313353 52.26494218 22.98362685 52.29315452 18 52 C18 51.34 18 50.68 18 50 C17.01 49.67 16.02 49.34 15 49 C15 57.58 15 66.16 15 75 C13.35 75 11.7 75 10 75 C10 62.46 10 49.92 10 37 C9.34 37 8.68 37 8 37 C8.185625 37.721875 8.37125 38.44375 8.5625 39.1875 C9.03825861 42.24594822 9.09707653 44.10058347 8 47 C4.56727261 49.28848493 1.47219248 49.18220691 -2.53125 48.55859375 C-7.78061257 47.37084241 -12.88927297 45.67500962 -18 44 C-17.51165254 39.4522643 -17.51165254 39.4522643 -15.25 37.453125 C-9.70359261 34.48733771 -5.29242338 33.29963921 1 33 C0.67386719 32.319375 0.34773438 31.63875 0.01171875 30.9375 C-3.15098267 21.75467579 -0.90014122 9.53185255 0 0 Z M9 16 C10 18 10 18 10 18 Z M10 19 C10.33 24.94 10.66 30.88 11 37 C11.99 37 12.98 37 14 37 C14.42765417 30.58518742 12.85743168 25.11404596 11 19 C10.67 19 10.34 19 10 19 Z M-1 40 C3 41 3 41 3 41 Z " fill="#78BE20" transform="translate(102,92)"/>
<path d="M0 0 C6.59220372 1.71053627 10.41337046 3.98226554 14.875 9.1875 C16.55301557 13.38253891 16.55869731 17.53767734 16 22 C14.98046875 24.30859375 14.98046875 24.30859375 14 26 C14.60328125 25.55527344 15.2065625 25.11054687 15.828125 24.65234375 C16.62734375 24.08644531 17.4265625 23.52054688 18.25 22.9375 C19.03890625 22.36902344 19.8278125 21.80054687 20.640625 21.21484375 C23 20 23 20 25.296875 20.31640625 C25.85890625 20.54199219 26.4209375 20.76757812 27 21 C27.32764303 25.09553782 27.23069669 27.53860663 25.375 31.25 C22.74236376 34.29831565 20.81735494 35.72754835 17 37 C15.68 36.34 14.36 35.68 13 35 C12.67 40.61 12.34 46.22 12 52 C10.68 52 9.36 52 8 52 C7.505 42.1 7.505 42.1 7 32 C5.68 32.66 4.36 33.32 3 34 C-3.05858304 34.23915459 -8.48926401 32.3044896 -14 30 C-13 27 -13 27 -11.36328125 25.83203125 C-7.06030271 23.69283621 -3.92614603 22.5073854 1 23 C0.66226563 22.36707031 0.32453125 21.73414062 -0.0234375 21.08203125 C-1.36986975 16.83269105 -0.97236135 13.08856829 -0.625 8.6875 C-0.56828125 7.85154297 -0.5115625 7.01558594 -0.453125 6.15429688 C-0.31240504 4.10213072 -0.1576007 2.05093882 0 0 Z M8 14 C9 16 9 16 9 16 Z M9 16 C9 18.97 9 21.94 9 25 C9.33 25 9.66 25 10 25 C10 22.03 10 19.06 10 16 C9.67 16 9.34 16 9 16 Z M7 26 C7 26.66 7 27.32 7 28 C6.01 28.495 6.01 28.495 5 29 C5.99 29 6.98 29 8 29 C7.67 28.01 7.34 27.02 7 26 Z " fill="#79BF20" transform="translate(172,78)"/>
<path d="M0 0 C4.94749939 1.52810577 7.88821538 2.69841538 11 7 C11.40405147 10.04828707 11.29945184 12.94559125 11 16 C11.5775 15.67 12.155 15.34 12.75 15 C15 14 15 14 19 14 C18.70980098 17.77258731 18.48342371 20.32665983 16.25 23.4375 C14 25 14 25 9 25 C9 28.3 9 31.6 9 35 C8.01 35 7.02 35 6 35 C5.67 30.71 5.34 26.42 5 22 C4.67 22.33 4.34 22.66 4 23 C-0.8215583 23.28362108 -4.50492881 22.75417412 -9 21 C-8 18 -8 18 -5 16 C-3.0103005 15.60986284 -1.00980131 15.26797351 1 15 C0.67 14.67 0.34 14.34 0 14 C-0.07271741 11.64686445 -0.08370868 9.29166332 -0.0625 6.9375 C-0.05347656 5.64714844 -0.04445312 4.35679688 -0.03515625 3.02734375 C-0.02355469 2.02832031 -0.01195312 1.02929688 0 0 Z " fill="#79BE21" transform="translate(230,73)"/>
</svg>
