<?xml version="1.0" encoding="UTF-8"?>
<svg version="1.1" xmlns="http://www.w3.org/2000/svg" width="454" height="455">
<path d="M0 0 C149.82 0 299.64 0 454 0 C454 150.15 454 300.3 454 455 C304.18 455 154.36 455 0 455 C0 304.85 0 154.7 0 0 Z " fill="#0093FD" transform="translate(0,0)"/>
<path d="M0 0 C5.36477053 4.30497254 10.40025116 8.85656726 15.1171875 13.86328125 C13.80235177 16.78162342 12.40085474 18.81249054 10.10546875 21.03515625 C9.51523926 21.61378418 8.92500977 22.19241211 8.31689453 22.78857422 C7.38272705 23.6918042 7.38272705 23.6918042 6.4296875 24.61328125 C1.43259685 29.51842441 -3.41838982 34.45898012 -7.8828125 39.86328125 C-8.8521875 39.01765625 -9.8215625 38.17203125 -10.8203125 37.30078125 C-12.1721129 36.15215726 -13.52646106 35.00652757 -14.8828125 33.86328125 C-15.56988281 33.27546875 -16.25695312 32.68765625 -16.96484375 32.08203125 C-30.11671362 21.2761706 -44.26928556 18.66301929 -60.8828125 19.86328125 C-73.58255476 21.59242236 -84.49990113 28.2166144 -92.8828125 37.86328125 C-102.00182325 52.27502652 -104.1657438 68.24112909 -100.6328125 84.86328125 C-97.45668866 96.80315421 -91.10389457 106.6001241 -80.578125 113.35546875 C-67.789227 120.50983778 -51.7402123 121.19880987 -37.6953125 117.23828125 C-26.96150257 113.29468226 -18.86826829 106.84873704 -10.8828125 98.86328125 C-3.2928125 106.45328125 4.2971875 114.04328125 12.1171875 121.86328125 C5.29111695 135.51542235 -11.2330937 144.74016742 -25.22265625 149.6796875 C-49.97337185 157.68338742 -75.25241428 154.82016896 -98.3828125 143.23828125 C-117.28569096 132.50365392 -130.55344761 115.50479093 -136.42456055 94.72460938 C-142.76476252 71.02439782 -140.05071139 45.73861855 -127.87792969 24.52880859 C-125.54122467 20.6178661 -122.96756168 17.21227338 -119.8828125 13.86328125 C-119.42245605 13.36199707 -118.96209961 12.86071289 -118.48779297 12.34423828 C-111.62543159 4.95750322 -104.8000829 -1.26909596 -95.8828125 -6.13671875 C-95.09777344 -6.59433594 -94.31273437 -7.05195313 -93.50390625 -7.5234375 C-65.36635078 -22.95969116 -25.42183094 -18.84246819 0 0 Z " fill="#FCFEFE" transform="translate(222.8828125,159.13671875)"/>
<path d="M0 0 C11.88 0 23.76 0 36 0 C36.33 43.56 36.66 87.12 37 132 C59.77 132 82.54 132 106 132 C106 142.89 106 153.78 106 165 C71.02 165 36.04 165 0 165 C0 110.55 0 56.1 0 0 Z " fill="#FCFEFE" transform="translate(266,147)"/>
<path d="M0 0 C69.3 0 138.6 0 210 0 C210 69.63 210 139.26 210 211 C209.67 211 209.34 211 209 211 C208.90295776 209.70642578 208.90295776 209.70642578 208.80395508 208.38671875 C204.59936369 153.70176706 198.33140326 81.3686999 154 43 C111.99499607 9.84662525 51.6197464 3.24177184 0 1 C0 0.67 0 0.34 0 0 Z " fill="#FCFEFE" transform="translate(244,0)"/>
<path d="M0 0 C69.3 0 138.6 0 210 0 C210 0.33 210 0.66 210 1 C208.87247314 1.05945801 208.87247314 1.05945801 207.72216797 1.12011719 C154.79817497 4.0163357 87.53780522 10.01521034 48 50 C10.78642164 92.33260227 4.89487925 157.25745687 1 211 C0.67 211 0.34 211 0 211 C0 141.37 0 71.74 0 0 Z " fill="#FDFEFE" transform="translate(0,0)"/>
<path d="M0 0 C0.33 0 0.66 0 1 0 C1.06469482 0.87809326 1.12938965 1.75618652 1.19604492 2.66088867 C4.82075252 50.54125371 10.62183154 107.95886757 46 144 C46.99580078 145.03253906 46.99580078 145.03253906 48.01171875 146.0859375 C54.7401496 152.57086323 62.7730416 156.7328478 71 161 C72.15113281 161.6084375 73.30226563 162.216875 74.48828125 162.84375 C111.44170048 181.25768484 154.40724819 185.73240206 195 189 C195 189.33 195 189.66 195 190 C130.65 190 66.3 190 0 190 C0 127.3 0 64.6 0 0 Z " fill="#FCFEFE" transform="translate(0,265)"/>
<path d="M0 0 C0.33 0 0.66 0 1 0 C1 62.04 1 124.08 1 188 C-63.68 188 -128.36 188 -195 188 C-195 187.67 -195 187.34 -195 187 C-193.73615479 186.90295776 -193.73615479 186.90295776 -192.44677734 186.80395508 C-143.4908567 182.94772468 -76.56551151 177.24564741 -40.9453125 138.78125 C-10.09790083 100.12269117 -3.10579558 47.84945219 0 0 Z " fill="#FDFEFE" transform="translate(453,267)"/>
<path d="M0 0 C0.33 0 0.66 0 1 0 C1.04937279 4.66307014 1.08570627 9.32598873 1.10986328 13.98925781 C1.11993188 15.57619883 1.13358767 17.16312125 1.15087891 18.75 C1.17509001 21.02869247 1.18647422 23.30714006 1.1953125 25.5859375 C1.20563507 26.29744965 1.21595764 27.00896179 1.22659302 27.74203491 C1.22699422 29.49631665 1.12202209 31.24996709 1 33 C0.34 33.66 -0.32 34.32 -1 35 C-1.42645229 37.8595077 -1.42645229 37.8595077 -1.5625 41.0625 C-1.90277778 46.90277778 -1.90277778 46.90277778 -3 48 C-3.20775561 49.66204487 -3.36718255 51.33029491 -3.5 53 C-3.88888889 57.88888889 -3.88888889 57.88888889 -5 59 C-5.23075082 60.34747084 -5.41153063 61.70377565 -5.5625 63.0625 C-5.7790625 65.0115625 -5.7790625 65.0115625 -6 67 C-6.66 67 -7.32 67 -8 67 C-7.39840638 60.88943113 -6.52770274 54.85235677 -5.56141663 48.78904724 C-2.97417807 32.54249572 -0.96752583 16.43887557 0 0 Z " fill="#E3FEFE" transform="translate(453,267)"/>
<path d="M0 0 C12.87 0 25.74 0 39 0 C39 0.33 39 0.66 39 1 C38.18023682 1.0501123 37.36047363 1.10022461 36.51586914 1.15185547 C15.88550961 2.38382879 15.88550961 2.38382879 -4.65234375 4.6328125 C-8.1279142 5.01403026 -11.50645812 5.06246435 -15 5 C-15 4.34 -15 3.68 -15 3 C-14.00097656 2.95101563 -13.00195312 2.90203125 -11.97265625 2.8515625 C-10.68230469 2.77679688 -9.39195312 2.70203125 -8.0625 2.625 C-6.77472656 2.55539062 -5.48695313 2.48578125 -4.16015625 2.4140625 C-3.11730469 2.27742187 -2.07445312 2.14078125 -1 2 C-0.67 1.34 -0.34 0.68 0 0 Z " fill="#E2FFFF" transform="translate(171,0)"/>
<path d="M0 0 C5.62303757 4.67466337 10.79741554 9.67765667 15.9375 14.875 C16.71673828 15.65875 17.49597656 16.4425 18.29882812 17.25 C20.20154085 19.16438581 22.10186171 21.08108034 24 23 C23.67 23.99 23.34 24.98 23 26 C22.27296875 25.03513672 22.27296875 25.03513672 21.53125 24.05078125 C18.06845546 19.87725882 14.30853311 16.04452887 10.5 12.1875 C9.36111328 11.00510742 9.36111328 11.00510742 8.19921875 9.79882812 C7.46316406 9.05439453 6.72710937 8.30996094 5.96875 7.54296875 C5.30294922 6.86258545 4.63714844 6.18220215 3.95117188 5.48120117 C1.87728707 3.59690265 1.87728707 3.59690265 -2 4 C-1.34 2.68 -0.68 1.36 0 0 Z " fill="#DEFFFF" transform="translate(211,258)"/>
<path d="M0 0 C0.66 0.33 1.32 0.66 2 1 C0.2088872 2.95884243 -1.58286532 4.91709286 -3.375 6.875 C-3.88289063 7.43058594 -4.39078125 7.98617187 -4.9140625 8.55859375 C-6.9116026 10.74011781 -8.90816093 12.90816093 -11 15 C-11.99 14.67 -12.98 14.34 -14 14 C-12.60919892 12.41224451 -11.21211596 10.82999061 -9.8125 9.25 C-8.64654297 7.92742188 -8.64654297 7.92742188 -7.45703125 6.578125 C-5.11544754 4.12113732 -2.69841735 2.05137234 0 0 Z " fill="#148EE4" transform="translate(57,41)"/>
<path d="M0 0 C0.33 0.66 0.66 1.32 1 2 C-0.07507629 3.29854721 -1.16043736 4.58858361 -2.25 5.875 C-2.85328125 6.59429687 -3.4565625 7.31359375 -4.078125 8.0546875 C-5.97087634 9.97052118 -7.53657727 10.96449045 -10 12 C-8.52278578 8.54798361 -6.56205999 6.35038064 -3.875 3.75 C-3.15054688 3.04359375 -2.42609375 2.3371875 -1.6796875 1.609375 C-1.12539062 1.07828125 -0.57109375 0.5471875 0 0 Z " fill="#168DE2" transform="translate(231,181)"/>
<path d="M0 0 C0.33 0.99 0.66 1.98 1 3 C-4.625 7 -4.625 7 -8 7 C-5.36 4.69 -2.72 2.38 0 0 Z " fill="#1B8CDD" transform="translate(140,187)"/>
<path d="M0 0 C2.02350324 3.03525486 2.32124018 4.19426202 2.625 7.6875 C2.69976562 8.49574219 2.77453125 9.30398437 2.8515625 10.13671875 C2.90054687 10.75160156 2.94953125 11.36648437 3 12 C1.09598862 10.09598862 0.06479561 8.66574314 -0.19921875 5.953125 C-0.1886578 3.96766727 -0.09915043 1.9830086 0 0 Z " fill="#1A8CDE" transform="translate(439,120)"/>
</svg>
