<?xml version="1.0" standalone="no"?>
<!DOCTYPE svg PUBLIC "-//W3C//DTD SVG 20010904//EN"
 "http://www.w3.org/TR/2001/REC-SVG-20010904/DTD/svg10.dtd">
<svg version="1.0" xmlns="http://www.w3.org/2000/svg"
 width="612.000000pt" height="612.000000pt" viewBox="0 0 612.000000 612.000000"
 preserveAspectRatio="xMidYMid meet">

<g transform="translate(0.000000,612.000000) scale(0.100000,-0.100000)"
fill="#000000" stroke="none">
<path d="M2015 5781 c-185 -67 -461 -230 -675 -399 -120 -95 -353 -328 -452
-452 -551 -694 -746 -1606 -528 -2470 259 -1025 1090 -1834 2125 -2069 213
-48 368 -64 615 -65 132 0 279 5 335 13 366 46 739 165 1041 332 247 137 436
280 640 483 158 159 239 257 356 431 106 157 128 205 128 278 0 97 -46 172
-135 220 l-40 22 -1245 5 -1245 5 -82 31 c-242 91 -413 276 -489 529 -17 56
-19 151 -24 1505 l-5 1445 -22 42 c-29 54 -86 100 -147 118 -64 19 -90 18
-151 -4z"/>
<path d="M4060 5791 c-69 -21 -121 -65 -156 -131 -18 -33 -19 -81 -22 -1022
l-2 -988 892 0 c852 0 895 1 933 19 79 37 131 111 142 200 4 39 -3 72 -45 197
-143 428 -371 794 -698 1116 -217 214 -446 380 -710 514 -192 98 -260 117
-334 95z"/>
</g>
</svg>
