<?xml version="1.0" standalone="no"?>
<!DOCTYPE svg PUBLIC "-//W3C//DTD SVG 20010904//EN"
 "http://www.w3.org/TR/2001/REC-SVG-20010904/DTD/svg10.dtd">
<svg version="1.0" xmlns="http://www.w3.org/2000/svg"
 width="160" height="160" viewBox="0 0 900.000000 500.000000"
 preserveAspectRatio="xMidYMid meet">

<g transform="translate(0.000000,500.000000) scale(0.100000,-0.100000)"
fill="#000000" stroke="none">
<path d="M3366 4873 c-3 -10 -44 -232 -91 -493 -47 -261 -117 -647 -155 -857
-39 -211 -70 -392 -70 -403 0 -11 5 -20 11 -20 23 0 661 285 666 298 3 7 -17
36 -44 65 -27 29 -62 73 -77 100 -15 26 -31 45 -34 43 -12 -7 -201 -86 -205
-86 -3 0 -1 19 5 43 5 23 38 193 74 377 35 184 68 355 74 380 5 25 12 57 15
72 5 27 19 15 306 -249 l302 -277 -39 -18 c-22 -10 -82 -38 -134 -61 l-95 -44
70 -51 c39 -29 102 -65 141 -82 l72 -30 151 67 c83 37 151 72 151 79 0 6 -32
41 -70 78 l-71 66 3 68 3 67 120 -115 c66 -63 159 -152 207 -198 102 -98 98
-98 212 -21 80 53 95 67 78 78 -5 3 -71 66 -147 139 l-136 132 258 265 c141
146 261 264 264 263 4 -2 126 -116 272 -255 l265 -251 -302 -315 c-165 -174
-319 -330 -341 -347 -22 -17 -42 -34 -45 -36 -2 -3 36 -43 85 -89 l90 -84 180
182 c161 164 382 390 598 613 l78 81 -442 419 c-243 230 -445 419 -449 419 -3
0 -139 -137 -301 -305 -162 -167 -352 -364 -424 -437 l-130 -133 -171 162
c-94 90 -260 246 -370 348 -109 101 -242 226 -295 277 -52 51 -98 93 -101 93
-4 0 -9 -8 -12 -17z"/>
<path d="M4116 2919 c-49 -5 -91 -11 -94 -13 -5 -6 -202 -835 -202 -854 0 -10
34 -12 152 -10 l153 3 34 145 34 145 20 -45 c10 -25 36 -90 57 -145 l39 -100
176 -3 175 -2 -66 132 c-37 73 -75 146 -86 161 -11 16 -19 29 -17 31 2 1 24 9
48 16 150 48 243 220 200 373 -13 47 -60 102 -109 127 -90 46 -286 61 -514 39z
m287 -236 c35 -32 14 -123 -37 -156 -32 -21 -117 -40 -128 -29 -5 5 1 49 14
101 17 71 28 95 43 102 27 11 86 1 108 -18z"/>
<path d="M5116 2919 c-190 -31 -335 -162 -336 -302 0 -98 53 -158 210 -235 61
-30 96 -54 98 -65 5 -27 -25 -56 -66 -63 -40 -8 -146 9 -210 33 -25 9 -46 12
-51 7 -14 -14 -70 -228 -63 -236 13 -13 185 -38 266 -38 95 0 205 26 268 63
59 34 134 117 158 173 26 60 26 134 0 185 -25 49 -78 88 -197 147 -96 47 -110
64 -78 96 28 28 81 30 171 6 47 -12 87 -21 89 -19 10 11 64 224 57 230 -25 24
-218 35 -316 18z"/>
<path d="M2920 2906 c0 -5 -183 -789 -195 -838 l-7 -28 159 0 159 0 35 150 34
150 151 0 152 0 26 105 c14 57 26 107 26 110 0 3 -67 5 -150 5 -85 0 -150 4
-150 9 0 5 5 32 12 60 l11 51 147 0 147 0 30 115 29 115 -308 0 c-169 0 -308
-2 -308 -4z"/>
<path d="M3611 2873 c-20 -74 -191 -811 -191 -822 0 -8 47 -11 155 -11 l154 0
10 38 c5 20 51 212 101 427 51 214 94 393 96 397 3 5 -67 8 -155 8 l-160 0
-10 -37z"/>
<path d="M5471 2813 c-16 -54 -33 -110 -36 -125 l-7 -28 121 0 c67 0 121 -2
121 -4 0 -6 -140 -589 -145 -603 -3 -10 32 -13 154 -13 l159 0 68 278 c37 152
71 292 76 310 l9 32 113 0 113 0 22 108 c12 59 25 115 27 125 5 16 -18 17
-380 17 l-384 0 -31 -97z"/>
<path d="M5930 2170 c-28 -28 -26 -75 5 -105 30 -30 64 -32 99 -4 55 43 23
129 -49 129 -22 0 -43 -8 -55 -20z m102 -7 c37 -33 9 -113 -41 -113 -29 0 -71
39 -71 66 0 53 72 84 112 47z"/>
<path d="M5960 2122 c0 -36 2 -39 28 -40 26 0 29 3 29 31 0 34 -11 47 -39 47
-14 0 -18 -8 -18 -38z"/>
<path d="M4592 1850 c-73 -11 -172 -62 -217 -111 -96 -107 -126 -265 -78 -414
54 -169 211 -268 397 -251 165 15 306 142 306 278 l0 28 -95 0 c-82 0 -96 -2
-101 -17 -26 -83 -57 -112 -129 -121 -65 -7 -130 20 -161 68 -53 79 -53 224
-1 301 68 101 230 98 280 -4 l19 -37 94 0 94 0 0 28 c0 42 -43 124 -84 160
-86 75 -206 109 -324 92z"/>
<path d="M2950 1755 l0 -85 110 0 110 0 0 -290 0 -290 103 0 102 0 -3 290 -3
290 116 0 115 0 0 85 0 85 -325 0 -325 0 0 -85z"/>
<path d="M3630 1465 l0 -375 310 0 310 0 0 80 0 80 -211 2 -211 3 0 70 0 70
186 3 186 2 0 75 0 75 -186 2 -186 3 -2 62 -1 63 205 2 205 3 3 78 3 77 -306
0 -305 0 0 -375z"/>
<path d="M5040 1465 l0 -375 100 0 99 0 3 153 3 152 130 0 130 0 3 -152 3
-153 97 0 97 0 0 373 0 372 -97 3 -98 3 0 -136 0 -135 -135 0 -135 0 0 135 0
135 -100 0 -100 0 0 -375z"/>
<path d="M1715 884 c-151 -37 -252 -134 -290 -279 -55 -212 48 -415 243 -479
80 -27 219 -19 292 15 94 45 157 128 175 232 l7 37 -101 0 c-90 0 -101 -2
-101 -17 0 -36 -40 -84 -87 -105 -81 -36 -164 -9 -210 70 -25 42 -28 57 -28
137 0 74 4 97 22 132 32 59 75 86 142 91 71 4 118 -19 146 -70 l20 -38 99 0
98 0 -7 37 c-17 91 -93 176 -194 214 -54 21 -181 34 -226 23z"/>
<path d="M6430 874 c-65 -17 -148 -70 -184 -116 -14 -19 -38 -61 -53 -93 -25
-54 -28 -71 -28 -170 0 -105 2 -114 33 -177 41 -84 120 -158 199 -188 86 -32
202 -31 269 3 28 14 56 33 63 41 20 24 29 19 33 -16 3 -33 3 -33 66 -36 l62
-3 0 206 0 205 -160 0 -160 0 0 -70 0 -70 70 0 c83 0 90 -12 37 -65 -51 -51
-143 -69 -210 -41 -70 29 -107 102 -107 211 0 80 15 128 51 170 37 42 87 59
150 52 57 -7 95 -29 115 -68 14 -29 15 -29 113 -29 l99 0 -10 38 c-32 118
-117 193 -246 221 -70 15 -135 13 -202 -5z"/>
<path d="M4200 875 c0 0 0 -169 -1 -375 l0 -375 275 -3 276 -2 0 85 0 85 -180
0 -180 0 0 289 0 290 -95 3 c-52 2 -95 3 -95 3z"/>
<path d="M5088 872 l-298 -2 0 -375 0 -375 310 0 310 0 0 85 0 85 -212 2 -213
3 -1 68 -2 67 190 0 189 0 -3 78 -3 77 -175 1 c-96 1 -180 2 -187 3 -7 1 -10
23 -10 64 l2 62 208 3 207 2 0 75 c0 40 -3 75 -7 77 -5 2 -142 2 -305 0z"/>
<path d="M5454 871 c-2 -2 -4 -172 -4 -378 l0 -373 95 0 95 0 2 233 3 232 131
-230 131 -230 101 -3 102 -3 2 376 3 375 -92 0 -93 0 -1 -227 c0 -217 -1 -227
-17 -204 -9 14 -69 115 -133 225 l-115 201 -103 5 c-56 3 -105 3 -107 1z"/>
<path d="M2180 495 l0 -375 100 0 100 0 0 155 0 155 130 0 130 0 0 -155 0
-155 202 2 201 3 20 60 c11 33 24 62 28 65 4 3 65 5 136 5 l128 0 24 -68 23
-67 379 0 379 0 0 85 0 85 -180 0 -180 0 0 290 0 290 -100 0 -100 0 2 -355 c2
-195 1 -355 -2 -355 -3 0 -66 160 -139 355 l-135 356 -104 -3 -104 -3 -137
-360 -136 -360 -3 363 -2 362 -100 0 -100 0 0 -135 0 -135 -130 0 -130 0 0
135 0 135 -100 0 -100 0 0 -375z m1047 -93 c-44 -2 -82 0 -85 2 -3 3 10 52 28
108 55 173 47 171 95 23 l42 -130 -80 -3z"/>
<path d="M6960 495 l0 -375 310 0 310 0 0 85 0 85 -209 0 -209 0 -4 70 -3 70
188 0 187 0 0 78 0 78 -172 -1 c-95 -1 -180 1 -188 2 -12 3 -15 18 -14 66 l2
62 206 3 206 2 0 75 0 75 -305 0 -305 0 0 -375z"/>
</g>
</svg>
