<?xml version="1.0" encoding="UTF-8"?>
<svg xmlns="http://www.w3.org/2000/svg" xmlns:xlink="http://www.w3.org/1999/xlink" width="160px" height="79px" viewBox="0 0 228 113" version="1.1">
<defs>
<linearGradient id="linear0" gradientUnits="userSpaceOnUse" x1="0" y1="0" x2="0" y2="225" gradientTransform="matrix(0.501099,0,0,0.502222,0,0)">
<stop offset="0" style="stop-color:rgb(0%,66.666667%,93.333333%);stop-opacity:1;"/>
<stop offset="1" style="stop-color:rgb(0%,33.333333%,66.666667%);stop-opacity:1;"/>
</linearGradient>
</defs>
<g id="surface1">
<path style=" stroke:none;fill-rule:nonzero;fill:url(#linear0);" d="M 228 0 L 0 0 L 0 113 L 115.253906 113 "/>
<path style=" stroke:none;fill-rule:nonzero;fill:rgb(100%,100%,100%);fill-opacity:1;" d="M 112.746094 22.601562 L 112.746094 75.835938 L 93.203125 22.601562 L 73.660156 22.601562 L 57.125 66.796875 C 55.121094 55.746094 43.59375 51.730469 34.574219 48.714844 C 28.5625 46.707031 22.046875 44.195312 22.046875 40.679688 C 22.046875 38.167969 25.554688 35.65625 32.070312 36.160156 C 36.582031 36.664062 40.589844 36.664062 48.605469 40.679688 L 56.625 27.121094 C 49.109375 23.101562 39.085938 21.09375 31.066406 21.09375 C 21.546875 21.09375 13.53125 24.105469 8.519531 29.128906 C 5.011719 32.644531 3.507812 37.164062 3.007812 42.1875 C 3.007812 49.21875 5.511719 54.238281 11.023438 58.257812 C 15.535156 61.269531 21.046875 63.28125 26.058594 64.785156 C 32.570312 66.796875 37.582031 68.804688 37.582031 72.320312 C 37.082031 76.839844 32.070312 77.84375 28.5625 77.84375 C 22.550781 78.347656 17.539062 77.34375 10.023438 72.820312 L 3.007812 86.382812 C 10.523438 90.902344 18.539062 92.910156 28.0625 92.910156 C 34.574219 92.910156 44.597656 90.902344 50.109375 85.878906 L 49.109375 90.398438 L 68.148438 90.398438 L 71.65625 81.863281 C 79.171875 83.871094 87.691406 84.375 95.207031 81.863281 L 97.714844 90.398438 L 131.789062 90.398438 L 131.789062 70.3125 L 138.804688 70.3125 C 156.34375 70.3125 166.867188 61.773438 166.867188 46.707031 C 166.867188 29.632812 156.84375 22.601562 135.296875 22.601562 Z M 76.167969 66.796875 L 83.183594 44.195312 L 83.683594 44.195312 L 90.699219 66.796875 C 85.6875 68.300781 80.675781 68.300781 76.167969 66.796875 Z M 131.789062 55.246094 L 131.789062 37.164062 L 136.800781 37.164062 C 143.3125 37.164062 148.324219 39.171875 148.324219 45.703125 C 148.324219 52.734375 143.3125 55.246094 136.800781 55.246094 Z M 131.789062 55.246094 "/>
</g>
</svg>
