<?xml version="1.0" encoding="UTF-8"?>
<svg version="1.1" xmlns="http://www.w3.org/2000/svg" width="591" height="591">
<path d="M0 0 C6.93768042 5.78140035 10.05754399 12.98673815 11.02734375 21.875 C11.28029731 25.31239639 11.48294501 28.74389123 11.625 32.1875 C12.22183594 31.9709375 12.81867188 31.754375 13.43359375 31.53125 C25.99321341 27.50022794 40.59206152 27.49966856 52.75 32.875 C59.60114066 36.60081952 64.37698585 41.78926727 66.95703125 49.19140625 C69.2278037 59.37668383 68.67992187 68.474243 63.375 77.5859375 C56.55092277 87.73065945 47.06752904 94.4170366 37.14453125 101.31640625 C36.38446777 101.84588867 35.6244043 102.37537109 34.84130859 102.92089844 C33.35369491 103.95174109 31.86072502 104.97490874 30.36181641 105.98925781 C24.61891924 109.94700049 21.15266131 113.58425106 18.625 120.1875 C19.19525909 120.18305878 19.76551819 120.17861755 20.35305786 120.17404175 C26.35660259 120.12935775 32.36009913 120.09944921 38.36376953 120.07763672 C40.59621097 120.06765753 42.8286396 120.0540694 45.06103516 120.03662109 C84.68419192 119.73496697 84.68419192 119.73496697 96.09765625 130.50390625 C107.16407557 142.70244008 105.625 155.76026548 105.625 172.1875 C86.485 172.5175 67.345 172.8475 47.625 173.1875 C50.08055358 184.35987139 50.08055358 184.35987139 57.5 191 C63.99027209 193.46376923 72.46277518 193.45622293 78.84765625 190.89453125 C81.47494586 189.27972737 83.1008396 187.89655955 85 185.5 C85.50273437 184.87738281 86.00546875 184.25476563 86.5234375 183.61328125 C86.88695312 183.14277344 87.25046875 182.67226563 87.625 182.1875 C92.24372062 182.72735046 95.14895069 184.62715817 98.9375 187.25 C100.00613281 187.98347656 101.07476562 188.71695313 102.17578125 189.47265625 C102.98402344 190.03855469 103.79226563 190.60445312 104.625 191.1875 C103.82578288 197.87945233 99.49490191 201.85100128 94.625 206.1875 C82.38224915 213.89532544 68.9026886 215.02655471 54.8046875 212.50390625 C43.61887091 209.31740294 34.22202124 203.26101855 28.375 192.9921875 C24.55754839 184.93624181 23.25054787 176.73506565 23.3125 167.875 C23.31668945 167.04830811 23.32087891 166.22161621 23.32519531 165.36987305 C23.51530404 155.00389145 25.96542993 147.50664015 30.625 138.1875 C19.075 138.1875 7.525 138.1875 -4.375 138.1875 C-5.09571572 112.78227072 -5.09571572 112.78227072 4.3984375 101.4296875 C10.57970814 95.20503952 17.99144297 90.33466523 25.12744141 85.28198242 C37.10979013 77.62733881 37.10979013 77.62733881 44.625 66.1875 C45.11774338 61.17928865 45.57575313 55.47950455 42.625 51.1875 C37.25487216 48.21979778 30.57851022 48.48089651 24.625 49.1875 C16.49550613 51.5936433 11.81569085 56.76650997 6.625 63.1875 C-0.23664039 70.73530442 -7.61550044 74.75929641 -17.828125 75.40625 C-30.08833917 75.70406897 -40.50104277 73.8228975 -50.375 66.1875 C-58.60886888 58.11299633 -61.45488743 46.33825368 -61.625 35.125 C-61.47901838 23.45974184 -59.05590101 13.22555269 -51.375 4.1875 C-36.85703058 -9.11251896 -16.65700168 -8.94542683 0 0 Z M-35.375 14.1875 C-38.16627036 18.22945827 -39.375 21.24108838 -39.375 26.1875 C-29.145 26.1875 -18.915 26.1875 -8.375 26.1875 C-9.28698891 17.60896291 -9.28698891 17.60896291 -14.375 12.1875 C-20.85552791 8.22868379 -29.83457747 8.89691084 -35.375 14.1875 Z M-40.375 39.1875 C-39.17685166 47.94209659 -39.17685166 47.94209659 -33.80078125 54.48046875 C-28.38550342 57.85132709 -23.08769099 58.6556656 -16.8125 57.5625 C-12.19910939 56.38947065 -9.65704867 54.6296486 -6.375 51.1875 C-5.21978498 48.71619082 -5.21978498 48.71619082 -4.375 46.1875 C-2.49921788 43.66691778 -0.59533062 41.40783062 1.625 39.1875 C-12.235 39.1875 -26.095 39.1875 -40.375 39.1875 Z M50.88671875 146.98046875 C49.0456583 149.96960224 49.0456583 149.96960224 47.625 157.1875 C59.505 157.1875 71.385 157.1875 83.625 157.1875 C82.6845919 149.66423517 82.11221742 146.2520244 76.5625 141.375 C67.54928204 135.85076964 57.3952721 139.65165936 50.88671875 146.98046875 Z " fill="#D80328" transform="translate(310.375,205.8125)"/>
<path d="M0 0 C3.55178146 2.41268006 6.35078451 5.65431143 8.75390625 9.19140625 C8.75390625 9.85140625 8.75390625 10.51140625 8.75390625 11.19140625 C9.41390625 11.19140625 10.07390625 11.19140625 10.75390625 11.19140625 C10.91890625 10.49015625 11.08390625 9.78890625 11.25390625 9.06640625 C13.86576455 4.06034452 18.42952123 1.1390894 23.58984375 -0.96484375 C30.89564217 -2.91305666 40.07990933 -3.11704737 47.078125 0.08984375 C52.89588702 3.9141069 56.0907884 9.51143188 57.75390625 16.19140625 C58.15696594 20.90331085 58.10347067 25.59027193 58.046875 30.31640625 C58.04126966 31.67260262 58.037004 33.02880512 58.03401184 34.38500977 C58.02263664 37.9295166 57.99323432 41.47364613 57.9598999 45.01800537 C57.9290395 48.64476419 57.91547263 52.27158482 57.90039062 55.8984375 C57.86835611 62.99626154 57.81564961 70.09376934 57.75390625 77.19140625 C51.15390625 77.19140625 44.55390625 77.19140625 37.75390625 77.19140625 C37.72417725 74.7769519 37.72417725 74.7769519 37.69384766 72.3137207 C37.61776389 66.34058005 37.52905021 60.36768211 37.43652344 54.39477539 C37.39824526 51.8098632 37.36339039 49.22489796 37.33203125 46.63989258 C37.28635619 42.92379802 37.22836455 39.20806836 37.16796875 35.4921875 C37.15641754 34.33680984 37.14486633 33.18143219 37.13296509 31.99104309 C37.1130954 30.91030014 37.09322571 29.82955719 37.07275391 28.71606445 C37.05943024 27.76786331 37.04610657 26.81966217 37.03237915 25.84272766 C36.72851257 22.9496348 36.04213078 20.79421252 34.75390625 18.19140625 C30.96581948 15.66601507 27.23826909 16.02633328 22.90234375 16.66015625 C19.64855893 17.4647285 17.98111325 18.70217489 15.75390625 21.19140625 C12.42494926 27.29644023 12.28456299 32.72548174 12.2421875 39.59375 C12.2152607 41.21030235 12.2152607 41.21030235 12.18778992 42.85951233 C12.13385179 46.28260451 12.09984349 49.70555855 12.06640625 53.12890625 C12.03321869 55.45770144 11.99872771 57.78647845 11.96289062 60.11523438 C11.8756946 65.80730976 11.81548274 71.49876605 11.75390625 77.19140625 C4.82390625 77.19140625 -2.10609375 77.19140625 -9.24609375 77.19140625 C-9.25543945 75.51594727 -9.26478516 73.84048828 -9.27441406 72.11425781 C-9.31425371 65.90435085 -9.37999677 59.69494245 -9.45361328 53.48535156 C-9.48407571 50.79653435 -9.50473941 48.10790527 -9.51708984 45.41894531 C-9.53847033 41.55620428 -9.58509882 37.69447177 -9.63671875 33.83203125 C-9.63794739 32.62774475 -9.63917603 31.42345825 -9.64044189 30.18267822 C-9.66016052 29.06181824 -9.67987915 27.94095825 -9.70019531 26.78613281 C-9.70907776 25.80018127 -9.71796021 24.81422974 -9.72711182 23.79840088 C-10.39533415 20.44172903 -11.56762223 19.26806906 -14.24609375 17.19140625 C-20.25277505 15.71435347 -23.72107832 16.04973081 -29.24609375 19.19140625 C-33.81674326 23.44683855 -34.32644492 30.37841072 -34.56494141 36.32226562 C-34.60604991 38.22638327 -34.63735769 40.13073137 -34.66015625 42.03515625 C-34.6795224 43.04485474 -34.69888855 44.05455322 -34.71884155 45.09484863 C-34.77822602 48.29361746 -34.82485732 51.49242309 -34.87109375 54.69140625 C-34.90931142 56.87110873 -34.94836531 59.05079671 -34.98828125 61.23046875 C-35.08545447 66.5507023 -35.16534968 71.87079697 -35.24609375 77.19140625 C-41.84609375 77.19140625 -48.44609375 77.19140625 -55.24609375 77.19140625 C-55.24609375 51.45140625 -55.24609375 25.71140625 -55.24609375 -0.80859375 C-48.97609375 -0.80859375 -42.70609375 -0.80859375 -36.24609375 -0.80859375 C-35.91609375 2.49140625 -35.58609375 5.79140625 -35.24609375 9.19140625 C-34.44171875 8.11890625 -33.63734375 7.04640625 -32.80859375 5.94140625 C-24.9075653 -3.09619706 -10.89460578 -4.87080647 0 0 Z " fill="#000000" transform="translate(175.24609375,201.80859375)"/>
<path d="M0 0 C7.08759719 5.76897446 9.99712682 11.78775942 10.97857666 20.88577271 C11.10900189 23.73034386 11.15454602 26.5626502 11.1640625 29.41015625 C11.17964203 30.43684921 11.19522156 31.46354218 11.21127319 32.52134705 C11.25838806 35.76422493 11.28644899 39.00689058 11.3125 42.25 C11.34898867 45.52509784 11.38949892 48.80007508 11.43515015 52.07505798 C11.46239747 54.104903 11.48373972 56.13483733 11.49868774 58.16481018 C11.50894989 59.07343307 11.51921204 59.98205597 11.52978516 60.91821289 C11.53628082 61.72078018 11.54277649 62.52334747 11.54946899 63.35023499 C11.48802424 65.20540592 11.48802424 65.20540592 12.6875 66.1875 C15.3275 66.5175 17.9675 66.8475 20.6875 67.1875 C21.6775 75.1075 21.6775 75.1075 22.6875 83.1875 C15.21632899 86.9230855 8.32344093 87.63970564 0.140625 85.53125 C-5.0456169 83.2695806 -6.87001624 80.1664092 -9.3125 75.1875 C-10.3025 74.6925 -10.3025 74.6925 -11.3125 74.1875 C-11.51875 74.909375 -11.725 75.63125 -11.9375 76.375 C-14.34961167 81.30886478 -18.04608689 83.51975491 -22.75 86 C-31.59262179 88.95319806 -41.94221317 88.31127385 -50.30078125 84.3046875 C-56.87406365 80.65428213 -59.70928764 76.16290301 -62.3125 69.1875 C-64.11505823 61.67490249 -63.61412305 53.99609537 -60.26171875 46.9921875 C-53.59620618 36.64982876 -41.54979482 34.56864242 -30.375 32 C-29.27244873 31.76200684 -28.16989746 31.52401367 -27.03393555 31.27880859 C-25.98246338 31.04887207 -24.93099121 30.81893555 -23.84765625 30.58203125 C-22.902854 30.38456299 -21.95805176 30.18709473 -20.98461914 29.98364258 C-18.0472378 29.10846665 -15.82049602 27.94147807 -13.3125 26.1875 C-12.56648438 24.26220051 -12.56648438 24.26220051 -12.75 22.1875 C-12.74871094 21.506875 -12.74742187 20.82625 -12.74609375 20.125 C-13.19140587 18.05306851 -13.19140587 18.05306851 -14.94140625 16.47265625 C-19.97119385 13.74646165 -25.79544453 14.47488033 -31.3125 15.1875 C-38.17082299 17.56886215 -44.04877829 21.21620727 -49.3125 26.1875 C-53.5966203 24.66297071 -55.17720292 21.79946542 -57.5625 18.0625 C-58.62210937 16.41894531 -58.62210937 16.41894531 -59.703125 14.7421875 C-60.23421875 13.89914062 -60.7653125 13.05609375 -61.3125 12.1875 C-54.61917747 3.38049667 -45.49668611 -2.11142643 -34.625 -4.37109375 C-22.71266283 -5.95846887 -10.70825234 -5.85923241 0 0 Z M-16.125 43.5 C-20.6415668 45.5348322 -25.38000976 46.33088961 -30.2265625 47.24609375 C-34.54387572 48.56314753 -37.37496699 50.61073994 -39.6875 54.5 C-40.52285917 58.09204441 -40.22057553 60.62006043 -39.3125 64.1875 C-36.81377504 67.48938655 -34.33026202 69.2053804 -30.3125 70.1875 C-25.31227958 70.4417485 -21.43664565 69.7345052 -17.4375 66.625 C-12.9538714 62.21419135 -11.45588947 58.02595968 -11.140625 51.78515625 C-11.12670065 48.57907364 -11.18066496 45.39060331 -11.3125 42.1875 C-13.5277185 42.04653818 -13.5277185 42.04653818 -16.125 43.5 Z " fill="#000000" transform="translate(491.3125,331.8125)"/>
<path d="M0 0 C10.76239935 -0.72965419 20.87764045 1.95741079 29.1328125 9.09375 C40.69494423 20.89776733 39 34.83083553 39 51 C10.29 51.495 10.29 51.495 -19 52 C-16.54444642 63.17237139 -16.54444642 63.17237139 -9.125 69.8125 C-2.63472791 72.27626923 5.83777518 72.26872293 12.22265625 69.70703125 C14.84994586 68.09222737 16.4758396 66.70905955 18.375 64.3125 C18.87773437 63.68988281 19.38046875 63.06726563 19.8984375 62.42578125 C20.26195312 61.95527344 20.62546875 61.48476563 21 61 C25.61872062 61.53985046 28.52395069 63.43965817 32.3125 66.0625 C33.91544922 67.16271484 33.91544922 67.16271484 35.55078125 68.28515625 C36.35902344 68.85105469 37.16726563 69.41695313 38 70 C37.20078288 76.69195233 32.86990191 80.66350128 28 85 C15.75724915 92.70782544 2.2776886 93.83905471 -11.8203125 91.31640625 C-23.00612909 88.12990294 -32.40297876 82.07351855 -38.25 71.8046875 C-42.06745161 63.74874181 -43.37445213 55.54756565 -43.3125 46.6875 C-43.30831055 45.86080811 -43.30412109 45.03411621 -43.29980469 44.18237305 C-43.10969596 33.81639145 -40.65957007 26.31914015 -36 17 C-24.12 17 -12.24 17 0 17 C0 11.39 0 5.78 0 0 Z M-15.73828125 25.79296875 C-17.5793417 28.78210224 -17.5793417 28.78210224 -19 36 C-7.12 36 4.76 36 17 36 C16.0595919 28.47673517 15.48721742 25.0645244 9.9375 20.1875 C0.92428204 14.66326964 -9.2297279 18.46415936 -15.73828125 25.79296875 Z " fill="#000000" transform="translate(377,327)"/>
<path d="M0 0 C7.09406701 5.91172251 10.07591738 13.08455786 11.05078125 22.14453125 C11.1283356 23.57495996 11.19467549 25.00603915 11.25 26.4375 C11.32118042 27.46605103 11.32118042 27.46605103 11.39379883 28.51538086 C11.4140625 30.515625 11.4140625 30.515625 10.625 34.1875 C5.02057821 39.3943983 0.77952424 39.88369749 -6.68359375 39.67578125 C-7.65031509 39.66870651 -8.61703644 39.66163177 -9.61305237 39.65434265 C-12.68034455 39.626504 -15.7457659 39.56378499 -18.8125 39.5 C-20.90036414 39.47490353 -22.98825708 39.45209273 -25.07617188 39.43164062 C-30.17649469 39.37671173 -35.2754309 39.29051199 -40.375 39.1875 C-39.93471816 40.79414249 -39.48334911 42.3977493 -39.02734375 44 C-38.77718506 44.89332031 -38.52702637 45.78664062 -38.26928711 46.70703125 C-36.77055772 50.86403115 -34.08432929 53.04794714 -30.5 55.4375 C-24.2017067 57.66042705 -18.58984347 57.38713561 -12.375 55.1875 C-9.60460315 53.34056876 -7.85937105 52.1562421 -6.375 49.1875 C-3.01297061 50.61359159 -1.13824421 52.33098515 1.1875 55.125 C3.2519098 57.58482014 5.31858543 59.95118922 7.625 62.1875 C3.48418735 68.58693773 -3.08492417 71.96069206 -10.0625 74.5625 C-23.38997526 77.1794334 -36.74824119 75.28005958 -48.15234375 67.90625 C-56.51634657 61.43847981 -59.99902571 51.39591875 -61.375 41.1875 C-62.30366524 27.59684137 -60.41756449 14.82781084 -51.375 4.1875 C-36.85703058 -9.11251896 -16.65700168 -8.94542683 0 0 Z M-35.375 14.1875 C-38.16627036 18.22945827 -39.375 21.24108838 -39.375 26.1875 C-29.145 26.1875 -18.915 26.1875 -8.375 26.1875 C-9.28698891 17.60896291 -9.28698891 17.60896291 -14.375 12.1875 C-20.85552791 8.22868379 -29.83457747 8.89691084 -35.375 14.1875 Z " fill="#000000" transform="translate(310.375,205.8125)"/>
<path d="M0 0 C0 6.6 0 13.2 0 20 C2.58134766 19.98259766 2.58134766 19.98259766 5.21484375 19.96484375 C7.45572809 19.95546766 9.69661359 19.94636727 11.9375 19.9375 C13.07380859 19.92912109 14.21011719 19.92074219 15.38085938 19.91210938 C16.46044922 19.90888672 17.54003906 19.90566406 18.65234375 19.90234375 C20.15269165 19.89448853 20.15269165 19.89448853 21.68334961 19.88647461 C24 20 24 20 25 21 C25.08631874 22.34267413 25.10706473 23.68974322 25.09765625 25.03515625 C25.09515869 25.76355713 25.09266113 26.49195801 25.09008789 27.24243164 C25.08098389 28.1730542 25.07187988 29.10367676 25.0625 30.0625 C25.041875 33.011875 25.02125 35.96125 25 39 C16.75 39 8.5 39 0 39 C0.05101525 45.478937 0.11389925 51.95545638 0.20751953 58.43359375 C0.2357471 60.63729059 0.2569527 62.841089 0.27099609 65.04492188 C0.29240047 68.21276932 0.33903898 71.37939308 0.390625 74.546875 C0.39185364 75.53242371 0.39308228 76.51797241 0.39434814 77.53338623 C0.45053207 82.91248978 0.45053207 82.91248978 2.82714844 87.59863281 C5.9200709 89.59339404 8.33893356 89.87375633 12 90 C14.0078864 89.35747635 16.00882592 88.69258229 18 88 C20.49609375 88.01171875 20.49609375 88.01171875 23 89 C24.293784 91.36429086 25.12871288 93.28979411 25.9375 95.8125 C26.28651367 96.75706055 26.28651367 96.75706055 26.64257812 97.72070312 C27.59708263 100.51960404 28.15300184 102.45999352 27.3359375 105.34375 C24.20633157 109.22372929 18.73276185 110.25484175 14 111 C3.60127266 111.57524875 -6.20347712 111.95012898 -14.8125 105.3125 C-19.7807104 100.69010471 -22.7824501 94.37286058 -23.12025452 87.58282471 C-23.1169236 86.23713409 -23.1169236 86.23713409 -23.11352539 84.86425781 C-23.11344986 83.84350159 -23.11337433 82.82274536 -23.11329651 81.77105713 C-23.10813522 80.67613953 -23.10297394 79.58122192 -23.09765625 78.453125 C-23.0962413 77.3267865 -23.09482635 76.200448 -23.09336853 75.03997803 C-23.08777199 71.44329165 -23.0752201 67.84666756 -23.0625 64.25 C-23.05748455 61.81119882 -23.05292172 59.37239666 -23.04882812 56.93359375 C-23.03780369 50.95570517 -23.0205414 44.97786315 -23 39 C-27.62 39 -32.24 39 -37 39 C-37 32.73 -37 26.46 -37 20 C-32.38 20 -27.76 20 -23 20 C-23 14.39 -23 8.78 -23 3 C-20.31875 2.505 -17.6375 2.01 -14.875 1.5 C-14.04210449 1.34337891 -13.20920898 1.18675781 -12.35107422 1.02539062 C-11.6757666 0.90357422 -11.00045898 0.78175781 -10.3046875 0.65625 C-9.2835083 0.46772461 -9.2835083 0.46772461 -8.24169922 0.27539062 C-5.51344309 -0.05977306 -2.74876631 0 0 0 Z " fill="#000000" transform="translate(554,308)"/>
<path d="M0 0 C0 5.94 0 11.88 0 18 C7.26 18 14.52 18 22 18 C22 23.61 22 29.22 22 35 C14.74 35 7.48 35 0 35 C0.09728966 39.85680219 0.20023697 44.71282052 0.31738281 49.5690918 C0.35550299 51.21875865 0.3903845 52.86850382 0.421875 54.51831055 C0.4678966 56.89920921 0.52582635 59.27957652 0.5859375 61.66015625 C0.59748871 62.38960953 0.60903992 63.11906281 0.62094116 63.87062073 C0.75422623 68.56751758 1.44334952 72.553689 3 77 C4.56156227 78.69844 4.56156227 78.69844 7 79 C11.43322968 78.64815637 15.64618864 77.88590596 20 77 C20.87042243 78.88842514 21.72075474 80.78611902 22.5625 82.6875 C23.03816406 83.74324219 23.51382813 84.79898438 24.00390625 85.88671875 C25.07311823 89.22853031 25.3614164 90.77293891 24 94 C17.04360942 98.63316854 8.04513991 98.94821212 0 98 C-6.37260689 96.62455867 -11.86691514 94.57619783 -15.74699402 89.12216187 C-19.81793736 82.22738175 -20.43276522 74.66444915 -20.29296875 66.8359375 C-20.28872391 65.91785309 -20.28447906 64.99976868 -20.28010559 64.05386353 C-20.26349497 61.16059322 -20.22587775 58.2680549 -20.1875 55.375 C-20.17243032 53.39714557 -20.15874595 51.41928008 -20.14648438 49.44140625 C-20.11364953 44.62732798 -20.06199238 39.81378749 -20 35 C-23.96 35 -27.92 35 -32 35 C-32 29.39 -32 23.78 -32 18 C-28.04 18 -24.08 18 -20 18 C-20 13.05 -20 8.1 -20 3 C-17.22970414 2.49685437 -14.4588348 1.99736162 -11.6875 1.5 C-10.90181641 1.35691406 -10.11613281 1.21382812 -9.30664062 1.06640625 C-8.54931641 0.93105469 -7.79199219 0.79570312 -7.01171875 0.65625 C-6.31522217 0.53056641 -5.61872559 0.40488281 -4.90112305 0.27539062 C-3 0 -3 0 0 0 Z " fill="#000000" transform="translate(41,183)"/>
<path d="M0 0 C6.6 0 13.2 0 20 0 C21.68503699 1.68503699 21.11965983 3.76259884 21.12442017 6.01094055 C21.12082489 6.72735214 21.11722961 7.44376373 21.11352539 8.18188477 C21.11367142 8.93305573 21.11381744 9.68422668 21.1139679 10.4581604 C21.11326863 12.95260459 21.10547564 15.44697503 21.09765625 17.94140625 C21.09579212 19.66633564 21.09436819 21.39126557 21.09336853 23.11619568 C21.08954297 27.66512503 21.07971238 32.21402267 21.06866455 36.76293945 C21.05845124 41.40120006 21.05387108 46.03946577 21.04882812 50.67773438 C21.03809013 59.78517246 21.02049304 68.89257863 21 78 C14.07 78 7.14 78 0 78 C0 52.26 0 26.52 0 0 Z " fill="#000000" transform="translate(78,201)"/>
<path d="M0 0 C3.52637028 2.22314648 5.45081161 4.15857358 7 8 C7.34050529 12.88057582 6.66327491 16.18366164 3.5625 20 C-0.87346741 23.46221847 -4.48524562 23.67660012 -10 23 C-13.15689734 21.39285226 -15.19415756 20.02561766 -17.375 17.25 C-18.65395905 12.64574741 -18.60438778 8.59985002 -16.9375 4.1875 C-12.07378062 -1.30379608 -6.65518301 -1.61012492 0 0 Z " fill="#000000" transform="translate(94,170)"/>
</svg>
